<?xml version="1.0" encoding="UTF-8"?>
<svg version="1.0" xml:space="preserve" xmlns="http://www.w3.org/2000/svg">
	<title>symbol SVG Library</title>
	<symbol id="rocket" viewBox="0 0 32 32">
		<path d="M22 2L12 12H6l-6 8s6.357-1.77 10.065-.94L0 32l13.184-10.255C15.023 25.953 12 32 12 32l8-6v-6l10-10 2-10-10 2z"></path>
	</symbol>
	<symbol id="success" viewBox="0 0 52 52">
		<path d="M26,0C11.664,0,0,11.663,0,26s11.664,26,26,26s26-11.663,26-26S40.336,0,26,0z M40.495,17.329l-16,18C24.101,35.772,23.552,36,22.999,36c-0.439,0-0.88-0.144-1.249-0.438l-10-8c-0.862-0.689-1.002-1.948-0.312-2.811c0.689-0.863,1.949-1.003,2.811-0.313l8.517,6.813l14.739-16.581c0.732-0.826,1.998-0.9,2.823-0.166C41.154,15.239,41.229,16.503,40.495,17.329z" />
	</symbol>
	<symbol id="clipboard" viewBox="0 0 32 32">
		<path d="M14 26.828l-6.414-7.414 1.828-1.828L14 21.172l8.586-7.586 1.829 1.828z"></path>
		<path d="M29 4h-9a4 4 0 0 0-8 0H3a1 1 0 0 0-1 1v26a1 1 0 0 0 1 1h26a1 1 0 0 0 1-1V5a1 1 0 0 0-1-1zM16 2a2 2 0 1 1 .001 3.999A2 2 0 0 1 16 2zm12 28H4V6h4v3a1 1 0 0 0 1 1h14a1 1 0 0 0 1-1V6h4v24z"></path>
	</symbol>
	<symbol id="embed" viewBox="0 0 40 32">
		<path d="M26 23l3 3 10-10-10-10-3 3 7 7z"></path>
		<path d="M14 9l-3-3-10 10 10 10 3-3-7-7z"></path>
		<path d="M21.916 4.704l2.171 0.592-6 22.001-2.171-0.592 6-22.001z"></path>
	</symbol>
	<symbol id="arrowup" viewBox="0 0 192.701 192.701">
		<path d="M20.746,104.169l75.61-74.528l75.61,74.54c4.74,4.704,12.439,4.704,17.179,0s4.74-12.319,0-17.011l-84.2-82.997c-4.559-4.511-12.608-4.535-17.191,0l-84.2,83.009c-4.74,4.692-4.74,12.319,0,17.011C8.307,108.873,16.006,108.873,20.746,104.169z" />
		<path d="M104.946,88.373c-4.559-4.511-12.608-4.535-17.191,0l-84.2,82.997c-4.74,4.704-4.74,12.319,0,17.011c4.74,4.704,12.439,4.704,17.179,0l75.622-74.528l75.61,74.54c4.74,4.704,12.439,4.704,17.179,0s4.74-12.319,0-17.011L104.946,88.373z" />
	</symbol>
	<symbol id="medal" viewBox="0 0 472.615 472.615">
		<polygon points="445.851,0 26.764,0 26.764,119.738 192.063,185.447 192.056,185.447 192.056,242.76 230.21,242.76 
			205.451,318.962 105.6,318.962 186.381,377.65 155.525,472.615 236.307,413.923 317.088,472.615 286.232,377.65 367.013,318.962 
			267.163,318.962 242.404,242.76 280.56,242.76 280.56,185.447 280.553,185.447 445.851,119.738 " />
	</symbol>
	<symbol id="relax" viewBox="0 0 60.895 60.895">
		<path d="M50.347,36.341c2.891,0,5.234,2.344,5.234,5.234s-2.344,5.234-5.234,5.234s-5.234-2.344-5.234-5.234
		S47.457,36.341,50.347,36.341z M29.021,35.77l-4.754-4.751l1.614-1.616l4.754,4.752L29.021,35.77z M60.599,50.53
		c-1.36-2.659-2.725-5.32-4.086-7.98c-0.075,2.133-1.235,3.988-2.948,5.034c0.298,0.583,0.596,1.165,0.894,1.746
		c-2.623,0-5.246,0-7.869,0c0.02-0.329,0.004-0.657-0.028-0.984c0.112-0.668-0.019-1.396-0.524-2.05
		c-0.195-0.255-0.404-0.496-0.605-0.745c-0.035-0.041-0.067-0.083-0.104-0.124c-3.288-3.994-7.251-7.309-11.69-9.984
		c-2.729-1.645-5.202,2.617-2.483,4.254c2.028,1.228,3.925,2.601,5.69,4.109l-14.931,0.015c-1.528-1.381-3.057-2.76-4.584-4.143
		c-0.944-0.854-2.566-1.048-3.483,0c-2.396,2.735-4.79,5.477-7.184,8.209c-0.394,0.45-0.587,0.938-0.632,1.422
		c-1.216,0-2.432,0-3.649,0c-3.177,0-3.177,4.928,0,4.928c6.244,0,12.486,0,18.728,0v0.022l20.393,0.013
		c0.121,0,0.235-0.013,0.354-0.018c5.45,0,10.903,0,16.354,0c0.041,0.001,0.078,0.001,0.113,0c0.043,0,0.09,0,0.133,0
		c1.248,0,1.998-0.762,2.268-1.688C60.963,51.972,60.976,51.264,60.599,50.53z M11.949,49.31c1.28-1.463,2.56-2.926,3.841-4.389
		c1.473,1.33,2.945,2.659,4.417,3.989c0.193,0.174,0.394,0.298,0.597,0.399C17.852,49.31,14.901,49.31,11.949,49.31z M11.655,24.733
		H8.883v1.54H22.43v-1.54h-2.771V23h9.544V6.622H3.034v16.377h8.621C11.655,22.999,11.655,24.733,11.655,24.733z M17.811,23.809
		H13.5v-0.81h4.311V23.809z M11.654,21.152H4.88V8.469h22.476v12.683h-7.697C19.659,21.152,11.654,21.152,11.654,21.152z" />
	</symbol>
	<symbol id="passport" viewBox="0 0 260.666 260.666">
		<path d="M236.666,40.882H24c-13.233,0-24,10.767-24,24v130.902c0,13.233,10.767,24,24,24h212.666c13.233,0,24-10.767,24-24V64.882
		C260.666,51.648,249.899,40.882,236.666,40.882z M245.666,195.784c0,4.962-4.037,9-9,9H24c-4.963,0-9-4.038-9-9V64.882
		c0-4.962,4.037-9,9-9h212.666c4.963,0,9,4.038,9,9V195.784z" />
		<path d="M216.04,83.703h-68.933c-3.314,0-6,2.687-6,6s2.686,6,6,6h68.933c3.314,0,6-2.687,6-6S219.354,83.703,216.04,83.703z" />
		<path d="M216.04,164.963h-68.933c-3.314,0-6,2.686-6,6c0,3.313,2.686,6,6,6h68.933c3.314,0,6-2.687,6-6
		C222.04,167.649,219.354,164.963,216.04,164.963z" />
		<path d="M216.04,118.411h-41.718c-3.313,0-6,2.687-6,6s2.687,6,6,6h41.718c3.314,0,6-2.687,6-6S219.354,118.411,216.04,118.411z" />
		<path d="M216.04,141.686h-41.718c-3.313,0-6,2.687-6,6c0,3.314,2.687,6,6,6h41.718c3.314,0,6-2.686,6-6
		C222.04,144.373,219.354,141.686,216.04,141.686z" />
		<path d="M85.163,133.136c17.004,0,30.838-13.839,30.838-30.849c0-17.011-13.834-30.85-30.838-30.85
		c-17.009,0-30.847,13.839-30.847,30.85C54.316,119.297,68.154,133.136,85.163,133.136z M85.163,86.438
		c8.733,0,15.838,7.11,15.838,15.85c0,8.739-7.104,15.849-15.838,15.849c-8.738,0-15.847-7.11-15.847-15.849
		C69.316,93.548,76.425,86.438,85.163,86.438z" />
		<path d="M97.097,138.68H73.415c-16.592,0-30.09,13.497-30.09,30.088v12.961c0,4.142,3.357,7.5,7.5,7.5s7.5-3.358,7.5-7.5v-12.961
		c0-8.319,6.77-15.088,15.09-15.088h23.682c8.32,0,15.09,6.768,15.09,15.088v12.961c0,4.142,3.357,7.5,7.5,7.5s7.5-3.358,7.5-7.5
		v-12.961C127.187,152.177,113.688,138.68,97.097,138.68z" />
	</symbol>
	<symbol id="bubbles" viewBox="0 0 36 32">
		<path d="M34 28.161a3.65 3.65 0 0 0 2 3.256v.498a7.42 7.42 0 0 1-6.414-2.251c-.819.218-1.688.336-2.587.336-4.971 0-9-3.582-9-8s4.029-8 9-8 9 3.582 9 8c0 1.73-.618 3.331-1.667 4.64a3.635 3.635 0 0 0-.333 1.522zM16 0c8.702 0 15.781 5.644 15.995 12.672A12.262 12.262 0 0 0 27 11.625c-2.986 0-5.807 1.045-7.942 2.943-2.214 1.968-3.433 4.607-3.433 7.432 0 1.396.298 2.747.867 3.993a19.66 19.66 0 0 1-2.987-.151C10.068 29.279 5.966 29.895 2 29.986v-.841C4.142 28.096 6 26.184 6 24c0-.305-.024-.604-.068-.897C2.313 20.72 0 17.079 0 13 0 5.82 7.163 0 16 0z"></path>
	</symbol>
	<symbol id="question" viewBox="0 0 512 512">
		<circle cx="256" cy="378.5" r="25" />
		<path d="M256,0C114.516,0,0,114.497,0,256c0,141.484,114.497,256,256,256c141.484,0,256-114.497,256-256
				C512,114.516,397.503,0,256,0z M256,472c-119.377,0-216-96.607-216-216c0-119.377,96.607-216,216-216
				c119.377,0,216,96.607,216,216C472,375.377,375.393,472,256,472z" />
		<path d="M256,128.5c-44.112,0-80,35.888-80,80c0,11.046,8.954,20,20,20s20-8.954,20-20c0-22.056,17.944-40,40-40
				c22.056,0,40,17.944,40,40c0,22.056-17.944,40-40,40c-11.046,0-20,8.954-20,20v50c0,11.046,8.954,20,20,20
				c11.046,0,20-8.954,20-20v-32.531c34.466-8.903,60-40.26,60-77.469C336,164.388,300.112,128.5,256,128.5z" />
	</symbol>
	<symbol id="cart" viewBox="0 -31 512.00033 512">
		<path d="m166 300.003906h271.003906c6.710938 0 12.597656-4.4375 14.414063-10.882812l60.003906-210.003906c1.289063-4.527344.40625-9.390626-2.433594-13.152344-2.84375-3.75-7.265625-5.964844-11.984375-5.964844h-365.632812l-10.722656-48.25c-1.523438-6.871094-7.617188-11.75-14.648438-11.75h-91c-8.289062 0-15 6.710938-15 15 0 8.292969 6.710938 15 15 15h78.960938l54.167968 243.75c-15.9375 6.929688-27.128906 22.792969-27.128906 41.253906 0 24.8125 20.1875 45 45 45h271.003906c8.292969 0 15-6.707031 15-15 0-8.289062-6.707031-15-15-15h-271.003906c-8.261719 0-15-6.722656-15-15s6.738281-15 15-15zm0 0" />
		<path d="m151 405.003906c0 24.816406 20.1875 45 45.003906 45 24.8125 0 45-20.183594 45-45 0-24.8125-20.1875-45-45-45-24.816406 0-45.003906 20.1875-45.003906 45zm0 0" />
		<path d="m362.003906 405.003906c0 24.816406 20.1875 45 45 45 24.816406 0 45-20.183594 45-45 0-24.8125-20.183594-45-45-45-24.8125 0-45 20.1875-45 45zm0 0" />
	</symbol>
</svg>
