<?xml version="1.0" encoding="UTF-8"?>
<svg width="1036px" height="905px" viewBox="0 0 1036 905" version="1.1" xmlns="http://www.w3.org/2000/svg" xmlns:xlink="http://www.w3.org/1999/xlink">
    <title>3BE3367C-563C-4BC5-A466-93A287335C43@3x</title>
    <defs>
        <rect id="path-1" x="0" y="0" width="1036" height="905"></rect>
        <linearGradient x1="47.0217046%" y1="87.924635%" x2="50.0919139%" y2="50.666512%" id="linearGradient-3">
            <stop stop-color="#FBA919" offset="16.27%"></stop>
            <stop stop-color="#FAA21C" offset="34.2%"></stop>
            <stop stop-color="#F79023" offset="64.06%"></stop>
            <stop stop-color="#F47C28" offset="90.94%"></stop>
            <stop stop-color="#F47B2A" offset="100%"></stop>
        </linearGradient>
        <rect id="path-4" x="0" y="0" width="759" height="211"></rect>
        <rect id="path-6" x="0" y="0" width="1920" height="551"></rect>
        <rect id="path-8" x="0" y="0" width="389" height="667"></rect>
        <linearGradient x1="87.9771126%" y1="38.0177677%" x2="48.985906%" y2="50.301718%" id="linearGradient-10">
            <stop stop-color="#FBA919" offset="0%"></stop>
            <stop stop-color="#FAA21C" offset="34.2%"></stop>
            <stop stop-color="#F79023" offset="64.06%"></stop>
            <stop stop-color="#F47C28" offset="90.94%"></stop>
            <stop stop-color="#F47B2A" offset="100%"></stop>
        </linearGradient>
        <rect id="path-11" x="0" y="0" width="389" height="667"></rect>
    </defs>
    <g id="Page-1" stroke="none" stroke-width="1" fill="none" fill-rule="evenodd">
        <g id="LP_3" transform="translate(-884.000000, -137.000000)">
            <g id="Group-10" transform="translate(884.000000, 137.000000)">
                <mask id="mask-2" fill="white">
                    <use xlink:href="#path-1"></use>
                </mask>
                <g id="Mask"></g>
                <g mask="url(#mask-2)">
                    <g transform="translate(-7.000000, -5.000000)">
                        <g id="graphic_1" transform="translate(1015.015002, 742.000000) scale(1, -1) translate(-1015.015002, -742.000000) translate(437.000000, 46.000000)">
                            <g id="Group" fill-rule="nonzero">
                                <polyline id="Path" fill="#F47B2A" points="901.374051 0 0 1155.28346 281.550633 1172.86266 1085 143.243063"></polyline>
                                <polygon id="Path" fill="url(#linearGradient-3)" points="500.061392 893.106077 281.550633 1173 0 1155.28346 235.266456 853.827538"></polygon>
                            </g>
                            <polygon id="Rectangle" fill="#F04928" fill-rule="nonzero" transform="translate(605.993412, 726.416710) rotate(37.965435) translate(-605.993412, -726.416710) " points="506.519077 -40.2015742 705.467746 -40.2015742 705.467746 1493.03499 506.519077 1493.03499"></polygon>
                        </g>
                        <g id="Group-9">
                            <g id="Group-8">
                                <mask id="mask-5" fill="white">
                                    <use xlink:href="#path-4"></use>
                                </mask>
                                <g id="Mask" transform="translate(379.500000, 105.500000) scale(1, -1) translate(-379.500000, -105.500000) "></g>
                                <g mask="url(#mask-5)">
                                    <g transform="translate(-871.000000, -132.000000)">
                                        <g id="graphic_1-+-graphic_2-Mask" transform="translate(960.000000, 412.500000) scale(-1, 1) translate(-960.000000, -412.500000) translate(0.000000, 137.000000)">
                                            <mask id="mask-7" fill="white">
                                                <use xlink:href="#path-6"></use>
                                            </mask>
                                            <g id="Mask"></g>
                                        </g>
                                        <g id="Group-3-Copy-2" transform="translate(1252.000000, 220.500000) scale(-1, 1) translate(-1252.000000, -220.500000) translate(871.000000, 26.000000)">
                                            <g id="graphic_2-2-copy" transform="translate(428.500000, 194.500000) scale(-1, 1) translate(-428.500000, -194.500000) translate(95.000000, 0.000000)">
                                                <g id="graphic_2" transform="translate(333.500000, 194.500000) scale(1, -1) rotate(90.000000) translate(-333.500000, -194.500000) translate(139.000000, -139.000000)">
                                                    <mask id="mask-9" fill="white">
                                                        <use xlink:href="#path-8"></use>
                                                    </mask>
                                                    <g id="Mask"></g>
                                                    <g mask="url(#mask-9)" fill-rule="nonzero" id="Path">
                                                        <g transform="translate(181.500000, 320.500000) rotate(90.000000) translate(-181.500000, -320.500000) translate(-141.000000, 222.000000)">
                                                            <polyline fill="#F04928" points="431 197 499.389418 70.0066225 645 61 570.043386 196.774834"></polyline>
                                                            <polygon fill="#EF3E2B" points="645 60.3380282 466 132 507.585859 52"></polygon>
                                                            <polyline fill="#F47B2A" points="0 61 578 61 560.380952 4.54747351e-13 0 4.54747351e-13"></polyline>
                                                            <polygon fill="url(#linearGradient-10)" points="510 0 603.095638 0 645 61 544.65604 61"></polygon>
                                                        </g>
                                                    </g>
                                                </g>
                                            </g>
                                        </g>
                                        <g id="Group-3-Copy-3" transform="translate(878.000000, 26.000000)">
                                            <g id="graphic_2-2-copy" transform="translate(428.500000, 194.500000) scale(-1, 1) translate(-428.500000, -194.500000) translate(95.000000, 0.000000)">
                                                <g id="graphic_2" transform="translate(333.500000, 194.500000) scale(1, -1) rotate(90.000000) translate(-333.500000, -194.500000) translate(139.000000, -139.000000)">
                                                    <mask id="mask-12" fill="white">
                                                        <use xlink:href="#path-11"></use>
                                                    </mask>
                                                    <g id="Mask"></g>
                                                    <g mask="url(#mask-12)" fill-rule="nonzero" id="Path">
                                                        <g transform="translate(181.500000, 320.500000) rotate(90.000000) translate(-181.500000, -320.500000) translate(-141.000000, 222.000000)">
                                                            <polyline fill="#F04928" points="431 197 499.389418 70.0066225 645 61 570.043386 196.774834"></polyline>
                                                            <polygon fill="#EF3E2B" points="645 60.3380282 466 132 507.585859 52"></polygon>
                                                            <polyline fill="#F47B2A" points="0 61 578 61 560.380952 4.54747351e-13 0 4.54747351e-13"></polyline>
                                                            <polygon fill="url(#linearGradient-10)" points="510 0 603.095638 0 645 61 544.65604 61"></polygon>
                                                        </g>
                                                    </g>
                                                </g>
                                            </g>
                                        </g>
                                    </g>
                                </g>
                            </g>
                            <polygon id="Rectangle" stroke="#F47B2A" stroke-width="8" fill="#FFFFFF" points="103 61 406.833285 61 667 61 667 820 103 820"></polygon>
                        </g>
                    </g>
                </g>
            </g>
        </g>
    </g>
</svg>