<?xml version="1.0" encoding="UTF-8"?>
<svg width="268px" height="95px" viewBox="0 0 268 95" version="1.1" xmlns="http://www.w3.org/2000/svg" xmlns:xlink="http://www.w3.org/1999/xlink">
    <title>4A678FE5-793C-43FA-957C-BFD38B612733@3x</title>
    <defs>
        <linearGradient x1="64.4514994%" y1="4.41155116%" x2="49.697408%" y2="50.9821782%" id="linearGradient-1">
            <stop stop-color="#FBA919" offset="16.27%"></stop>
            <stop stop-color="#FAA21C" offset="34.2%"></stop>
            <stop stop-color="#F79023" offset="64.06%"></stop>
            <stop stop-color="#F47C28" offset="90.94%"></stop>
            <stop stop-color="#F47B2A" offset="100%"></stop>
        </linearGradient>
    </defs>
    <g id="Page-1" stroke="none" stroke-width="1" fill="none" fill-rule="evenodd">
        <g id="LP_3" transform="translate(-366.000000, -19.000000)" fill-rule="nonzero">
            <g id="logo" transform="translate(366.000000, 19.000000)">
                <g id="Group" transform="translate(110.000000, 10.000000)">
                    <path d="M158,30.6531078 C158,38.779737 158,46.9063662 158,55.0329954 C154.378153,55.0329954 150.667968,55.0329954 146.957784,55.0329954 C146.69277,53.8846674 146.957784,52.6480064 146.781108,51.4113454 C146.074406,52.0296759 145.456042,52.5596735 144.837678,53.089671 C139.890765,56.5346551 134.502164,56.8879868 129.113562,54.326332 C122.046544,51.0580137 121.339842,40.1047309 128.141847,35.5997517 C131.14533,33.6564273 134.413826,32.861431 137.858997,32.5964322 C140.509129,32.3314334 143.247599,32.4197663 145.897731,32.6847651 C146.33942,30.5647749 145.014354,28.7097834 142.629235,28.00312 C138.830712,26.9431249 135.297203,28.00312 131.940369,29.7697785 C131.056992,30.2114432 130.173615,30.8297737 129.2019,31.3597712 C128.40686,30.1231103 127.523483,28.7981164 126.728443,27.5614554 C125.933404,26.3247944 125.138364,24.9998005 124.343325,23.6748067 C126.46343,21.7314823 128.848549,20.4064884 131.498681,19.5231591 C137.063958,17.5798348 142.80591,16.9615043 148.459525,18.9931616 C153.671451,20.9364859 157.116623,24.5581359 158,30.1231103 M145.986069,39.8397321 C143.512612,39.928065 141.039156,39.5747333 138.654037,40.2813967 C136.710607,40.8113943 135.738892,42.2247211 136.003905,43.8147138 C136.268918,45.5813723 137.593984,46.5530345 139.71409,46.4647016 C143.159261,46.2880357 145.367705,43.9913796 145.986069,39.8397321 Z" id="Shape" fill="#FFFFFF"></path>
                    <path d="M34.5921902,30.6531078 C34.5921902,38.779737 34.5921902,46.9063662 34.5921902,55.0329954 C30.9703433,55.0329954 27.2601586,55.0329954 23.5499739,55.0329954 C23.2849607,53.8846674 23.5499739,52.6480064 23.3732984,51.4113454 C22.6665966,52.0296759 22.0482325,52.5596735 21.4298683,53.089671 C16.4829554,56.5346551 11.0943539,56.8879868 5.70575228,54.326332 C-1.36126618,51.0580137 -2.06796802,40.1047309 4.73403724,35.5997517 C7.73752008,33.6564273 11.0060161,32.861431 14.4511876,32.5964322 C17.1013195,32.3314334 19.8397892,32.4197663 22.4899211,32.6847651 C22.9316098,30.5647749 21.6065438,28.7097834 19.2214251,28.00312 C15.4229027,26.9431249 11.8893934,28.00312 8.53255966,29.7697785 C7.64918235,30.2114432 6.76580505,30.8297737 5.79409001,31.3597712 C4.99905043,30.1231103 4.11567312,28.7981164 3.32063355,27.5614554 C2.52559397,26.3247944 1.7305544,24.9998005 0.93551482,23.6748067 C3.05562036,21.7314823 5.44073909,20.4064884 8.09087101,19.5231591 C13.656148,17.5798348 19.3981005,16.9615043 25.0517153,18.9931616 C30.2636414,20.9364859 33.7088129,24.5581359 34.5921902,30.1231103 M22.6665966,39.8397321 C20.1931401,39.928065 17.7196837,39.5747333 15.3345649,40.2813967 C13.3911348,40.8113943 12.4194198,42.2247211 12.684433,43.8147138 C12.9494462,45.5813723 14.2745122,46.5530345 16.3946177,46.4647016 C19.7514515,46.2880357 22.0482325,43.9913796 22.6665966,39.8397321 Z" id="Shape" fill="#FFFFFF"></path>
                    <path d="M43.1609501,27.2081237 C41.5708709,27.2081237 40.1574672,27.2081237 38.6557258,27.2081237 C38.6557258,24.3814701 38.6557258,21.6431494 38.6557258,18.7281628 C40.0691295,18.7281628 41.5708709,18.7281628 43.1609501,18.7281628 C43.1609501,14.929847 43.1609501,11.308197 43.1609501,7.50988119 C47.5778366,7.50988119 51.8180477,7.50988119 56.2349342,7.50988119 C56.2349342,11.2198641 56.2349342,14.841514 56.2349342,18.6398299 C59.8567812,18.6398299 63.3902904,18.6398299 67.1004751,18.6398299 C67.1004751,21.5548164 67.1004751,24.2931371 67.1004751,27.1197908 C63.5669659,27.1197908 59.9451189,27.1197908 56.2349342,27.1197908 C56.2349342,28.7981164 56.2349342,30.2997761 56.2349342,31.8014358 C56.2349342,34.5397566 56.2349342,37.3664102 56.2349342,40.1047309 C56.2349342,43.0197174 57.9133511,44.5213772 60.8284962,44.4330443 C62.5069131,44.3447113 63.4786282,43.9913796 65.8637469,42.6663857 C67.1004751,45.6697052 68.3372033,48.5846918 69.5739316,51.5880113 C67.0121374,53.5313356 64.2736677,54.7679966 61.1818472,55.2979942 C57.7366757,55.9163246 54.2915042,56.0046576 51.0230081,54.6796637 C45.4577311,52.3830076 43.4259633,47.8780284 43.3376256,42.2247211 C43.0726124,37.3664102 43.1609501,32.4197663 43.1609501,27.2081237 Z" id="Path" fill="#FFFFFF"></path>
                    <path d="M85.9164118,55.0329954 C81.4995252,55.0329954 77.2593141,55.0329954 72.9307653,55.0329954 C72.9307653,43.0197174 72.9307653,31.0064395 72.9307653,18.8164957 C76.994301,18.8164957 81.1461743,18.8164957 85.3863854,18.8164957 C85.3863854,19.9648238 85.3863854,21.0248189 85.3863854,22.5264786 C90.421636,17.9331665 95.8102376,16.2548409 102.170554,19.3464933 C101.198839,22.6148115 100.227124,25.8831298 99.2554091,29.3281139 C94.3968339,27.2964566 89.9799474,28.2681188 85.9164118,31.3597712 C85.9164118,39.2214016 85.9164118,47.083032 85.9164118,55.0329954 Z" id="Path" fill="#FFFFFF"></path>
                    <path d="M105.174037,54.9446625 C105.174037,42.8430516 105.174037,30.8297737 105.174037,18.8164957 C109.414248,18.8164957 113.654459,18.8164957 117.983008,18.8164957 C117.983008,30.8297737 117.983008,42.8430516 117.983008,54.9446625 C113.742797,54.9446625 109.502586,54.9446625 105.174037,54.9446625 Z" id="Path" fill="#FFFFFF"></path>
                    <path d="M119.484749,7.95154582 C119.484749,12.2798592 115.95124,15.8131762 111.534354,15.8131762 C107.205805,15.8131762 103.583958,12.1915263 103.583958,7.86321289 C103.583958,3.53489952 107.205805,-0.0867504482 111.534354,0.00158247781 C115.95124,0.00158247781 119.484749,3.53489952 119.484749,7.95154582 Z" id="Path" fill="#F04928"></path>
                </g>
                <g id="Group">
                    <polygon id="Path" fill="#F04928" points="71.6906077 0 48 12.7374302 24.1325967 0 24.1325967 26.094041 48 38.6545624 71.7790055 25.9171322"></polygon>
                    <polygon id="Path" fill="#EF3E2B" points="24.1325967 0 35.8895028 32.1973929 20.8618785 24.4134078"></polygon>
                    <polygon id="Path" fill="#EF3E2B" points="71.6906077 0 60.0220994 32.1973929 75.0497238 24.4134078"></polygon>
                    <polygon id="Path" fill="#F47B2A" points="71.6906077 0 96 16.6294227 96 67.3137803 48 95 0 67.3137803 0 16.6294227 24.1325967 0 24.1325967 53.5148976 48 67.0484171 71.6906077 53.5148976"></polygon>
                    <polygon id="Path" fill="url(#linearGradient-1)" points="96 53.603352 96 16.6294227 71.6906077 0 71.6906077 39.8929236"></polygon>
                </g>
            </g>
        </g>
    </g>
</svg>