<?xml version="1.0" encoding="UTF-8"?>
<svg width="391px" height="136px" viewBox="0 0 391 136" version="1.1" xmlns="http://www.w3.org/2000/svg" xmlns:xlink="http://www.w3.org/1999/xlink">
    <title>113A82CD-F760-4C14-9B3A-7D25EDCBD7E0@3x</title>
    <defs>
        <polygon id="path-1" points="0 0 25.6508563 0 25.6508563 17.4511 0 17.4511"></polygon>
        <polygon id="path-3" points="5.68434189e-14 -7.10542736e-15 22.6137078 -7.10542736e-15 22.6137078 13.3277429 5.68434189e-14 13.3277429"></polygon>
        <polygon id="path-5" points="0 0 127.667594 0 127.667594 34.6089954 0 34.6089954"></polygon>
    </defs>
    <g id="Page-1" stroke="none" stroke-width="1" fill="none" fill-rule="evenodd">
        <g id="LP_3" transform="translate(-367.000000, -847.000000)">
            <g id="Group-6" transform="translate(367.000000, 847.000000)">
                <g id="Group-2" transform="translate(221.000000, 27.000000)">
                    <path d="M24.5,0 C38.0309176,0 49,10.9690824 49,24.5 C49,38.0309176 38.0309176,49 24.5,49 C10.9690824,49 0,38.0309176 0,24.5 C0,10.9690824 10.9690824,0 24.5,0" id="Fill-1" fill="#EA3824"></path>
                    <path d="M36.518399,11 L12.4874112,11 C11.6658489,11 11,11.6657057 11,12.4870912 L11,36.5129088 C11,37.3342943 11.6658489,38 12.4874112,38 L25.4267269,38 L25.4267269,27.5438898 L21.888315,27.5438898 L21.888315,23.4776248 L25.4092963,23.4776248 L25.4092963,20.4685886 C25.4092963,16.9832186 27.5358296,15.0836919 30.6384764,15.0836919 C31.6883796,15.0790448 32.7377017,15.133068 33.7817947,15.2463425 L33.7817947,18.8885542 L31.6262105,18.8885542 C29.929632,18.8885542 29.6042608,19.6959983 29.6042608,20.8752151 L29.6042608,23.4776248 L33.6423499,23.4776248 L33.1136217,27.5438898 L29.6275016,27.5438898 L29.6275016,38 L36.5125888,38 C37.3341511,38 38,37.3342943 38,36.5129088 L38,12.4870912 C38,11.6680293 37.3376372,11.0034854 36.518399,11" id="Fill-3" fill="#FFFFFF"></path>
                </g>
                <g id="Group-5" transform="translate(282.000000, 27.000000)">
                    <path d="M24.2527174,0 C37.6470652,0 48.5054348,10.9690824 48.5054348,24.5 C48.5054348,38.0309176 37.6470652,49 24.2527174,49 C10.8583696,49 0,38.0309176 0,24.5 C0,10.9690824 10.8583696,0 24.2527174,0" id="Fill-1" fill="#EA3824"></path>
                    <path d="M37.834125,15.9914094 C36.8160815,16.4445153 35.7375489,16.7437035 34.6327663,16.8791741 C35.798038,16.1753035 36.6682826,15.0667506 37.0808641,13.7604682 C35.9880652,14.4170682 34.790837,14.8788212 33.5428207,15.1267035 C31.4342609,12.8594447 27.9059185,12.7487624 25.6621141,14.8788212 C24.5424946,15.9418329 23.9062174,17.4245153 23.9045054,18.9775271 C23.9050761,19.40988 23.9530109,19.84108 24.0471685,20.2630565 C19.5698315,20.0416918 15.3937989,17.9162447 12.5542337,14.41188 C11.0848043,16.9760212 11.8335,20.2515271 14.2661902,21.9059976 C13.3799674,21.8777506 12.5137174,21.6362094 11.7382011,21.2027035 L11.7382011,21.2776447 C11.7404837,23.9576565 13.6116522,26.2646918 16.2121141,26.7944682 C15.3909457,27.0169859 14.5315435,27.0504212 13.695538,26.8924682 C14.4236902,29.1862447 16.5157011,30.7577035 18.8998859,30.8003624 C16.9254293,32.3608682 14.4898859,33.2048212 11.9835815,33.1990565 C11.5390435,33.19848 11.0956467,33.1713859 10.653962,33.1183506 C13.2059185,34.7791624 16.1784457,35.6577035 19.2137446,35.6491197 C29.4854837,35.6491197 35.0721685,27.0711741 35.0721685,19.6341271 L35.0721685,18.9025859 C36.1564076,18.1053271 37.0917065,17.1195624 37.834125,15.9914094" id="Fill-3" fill="#FFFFFF"></path>
                </g>
                <path d="M195.143305,68.9514 C195.143305,68.9514 196.895305,34.3574 194.487305,34.3574 C192.079305,34.3574 188.356305,35.2324 187.042305,38.0794 C185.729305,40.9264 184.634305,73.1104 183.321305,75.0814 C182.006305,77.0524 195.143305,68.9514 195.143305,68.9514" id="Fill-1" fill="#EA3824"></path>
                <path d="M149.272205,124.9836 L184.018205,123.3796 C184.018205,123.3796 181.381205,101.0426 186.385205,94.7866 C191.390205,88.5306 205.405205,76.7786 208.718205,68.7316 C212.032205,60.6846 213.137205,31.8386 213.137205,31.8386 C213.137205,31.8386 214.321205,26.3956 209.824205,25.6856 C205.328205,24.9756 203.908205,27.5796 203.434205,31.3666 C203.434205,31.3666 198.227205,27.5796 195.387205,31.6026 C192.547205,35.6266 194.931205,62.7546 191.600205,65.9206 C169.111205,87.2976 156.379205,83.9366 152.830205,93.4036 C149.279205,102.8716 149.272205,124.9836 149.272205,124.9836" id="Fill-3" fill="#EA3824"></path>
                <path d="M197.991905,66.5256 C197.870905,66.5256 197.752905,66.4656 197.681905,66.3576 C197.571905,66.1866 197.620905,65.9596 197.790905,65.8476 C197.821905,65.8286 200.958905,63.7136 201.410905,57.6096 C201.877905,51.2946 203.054905,32.9476 203.066905,32.7626 C203.079905,32.5596 203.249905,32.3966 203.458905,32.4186 C203.660905,32.4316 203.814905,32.6066 203.801905,32.8096 C203.789905,32.9946 202.612905,51.3456 202.144905,57.6646 C201.663905,64.1636 198.331905,66.3766 198.189905,66.4666 C198.128905,66.5066 198.058905,66.5256 197.991905,66.5256" id="Fill-5" fill="#000000"></path>
                <path d="M193.418705,73.1711 C193.346705,73.1711 193.272705,73.1501 193.208705,73.1051 C193.041705,72.9871 193.001705,72.7581 193.117705,72.5921 C193.691705,71.7711 194.405705,70.3771 194.192705,69.8561 C194.163705,69.7831 194.106705,69.7041 193.907705,69.6661 C192.454705,69.3881 191.160705,70.8081 191.147705,70.8221 C191.012705,70.9751 190.779705,70.9861 190.628705,70.8511 C190.477705,70.7141 190.464705,70.4821 190.601705,70.3301 C190.664705,70.2591 192.192705,68.5901 194.045705,68.9421 C194.557705,69.0401 194.778705,69.3421 194.875705,69.5791 C195.313705,70.6541 193.990705,72.6291 193.721705,73.0151 C193.649705,73.1171 193.534705,73.1711 193.418705,73.1711" id="Fill-7" fill="#000000"></path>
                <path d="M191.601305,66.2893 C191.580305,66.2893 191.560305,66.2873 191.539305,66.2843 C191.339305,66.2503 191.204305,66.0603 191.237305,65.8603 C192.061305,60.9343 193.882305,35.6803 193.900305,35.4253 C193.914305,35.2233 194.096305,35.0653 194.293305,35.0843 C194.497305,35.1003 194.649305,35.2753 194.634305,35.4783 C194.616305,35.7333 192.792305,61.0203 191.963305,65.9813 C191.933305,66.1613 191.778305,66.2893 191.601305,66.2893" id="Fill-9" fill="#000000"></path>
                <path d="M154.356205,102.9309 C154.202205,102.9309 154.058205,102.8329 154.006205,102.6789 C153.920205,102.4209 151.985205,96.2719 159.438205,88.8189 C163.132205,85.1239 165.369205,84.2999 167.738205,83.4289 C170.108205,82.5549 172.795205,81.5669 177.515205,77.3569 C184.508205,71.1199 191.522205,65.4509 195.487205,66.1639 C196.551205,66.3579 197.373205,66.9919 197.929205,68.0469 C199.069205,70.2119 196.500205,74.3929 190.293205,80.4699 C185.752205,84.9159 180.836205,88.8199 180.788205,88.8589 C180.627205,88.9869 180.396205,88.9579 180.270205,88.7989 C180.144205,88.6399 180.170205,88.4079 180.331205,88.2819 C185.711205,84.0179 199.248205,72.1329 197.278205,68.3899 C196.826205,67.5329 196.197205,67.0409 195.355205,66.8889 C191.697205,66.2289 184.531205,72.0859 178.005205,77.9069 C173.181205,82.2089 170.424205,83.2239 167.992205,84.1189 C165.602205,84.9989 163.539205,85.7589 159.959205,89.3389 C152.849205,96.4499 154.686205,102.3879 154.706205,102.4469 C154.769205,102.6399 154.665205,102.8479 154.471205,102.9119 C154.433205,102.9239 154.393205,102.9309 154.356205,102.9309" id="Fill-11" fill="#000000"></path>
                <path d="M149.655005,111.8996 C149.655005,111.8996 186.428005,110.0256 186.897005,111.4306 C187.366005,112.8366 187.132005,125.7186 185.961005,126.1876 C184.790005,126.6566 147.399005,128.1016 148.250005,126.1876 C149.186005,124.0796 147.313005,112.1336 149.655005,111.8996" id="Fill-13" fill="#FFFFFF"></path>
                <path d="M148.651105,126.1692 C149.085105,126.3682 151.017105,126.7842 159.564105,126.7842 C170.438105,126.7842 184.976105,126.1162 185.831105,125.8432 C186.407105,125.3082 187.247105,113.9942 186.575105,111.6322 C186.321105,111.5242 185.162105,111.2762 179.894105,111.2762 C169.237105,111.2762 149.869105,112.2582 149.674105,112.2682 C148.615105,112.3732 148.759105,117.4052 148.846105,120.4122 C148.919105,122.9512 148.983105,125.1652 148.651105,126.1692 M159.564105,127.5212 C148.594105,127.5212 148.162105,126.8542 147.953105,126.5342 C147.855105,126.3832 147.840105,126.2012 147.914105,126.0372 C148.249105,125.2822 148.178105,122.8162 148.109105,120.4332 C147.959105,115.1632 147.981105,111.6962 149.618105,111.5332 C149.831105,111.5222 169.218105,110.5402 179.893105,110.5402 C186.988105,110.5402 187.126105,110.9512 187.246105,111.3152 C187.534105,112.1782 187.716105,125.8822 186.096105,126.5282 C185.201105,126.8882 169.713105,127.5212 159.564105,127.5212" id="Fill-15" fill="#000000"></path>
                <path d="M147.795605,116.5842 C147.795605,116.5842 189.152605,114.7112 189.679605,116.1162 C190.206605,117.5212 189.942605,130.4032 188.626605,130.8722 C187.309605,131.3412 147.268605,132.7462 146.214605,130.8722 C145.160605,128.9982 145.160605,116.8182 147.795605,116.5842" id="Fill-17" fill="#F69C43"></path>
                <path d="M180.584705,119.2356 C180.583705,119.3056 180.562705,119.3766 180.519705,119.4376 C180.402705,119.6046 180.173705,119.6466 180.006705,119.5306 C179.386705,119.0986 178.125705,119.2436 177.691705,119.3366 C177.492705,119.3786 177.297705,119.2526 177.254705,119.0526 C177.212705,118.8516 177.338705,118.6586 177.537705,118.6156 C177.613705,118.5996 179.416705,118.2226 180.427705,118.9246 C180.531705,118.9986 180.587705,119.1166 180.584705,119.2356" id="Fill-19" fill="#000000"></path>
                <path d="M174.482105,118.6145 C174.480105,118.6835 174.460105,118.7545 174.416105,118.8165 C174.299105,118.9835 174.070105,119.0245 173.904105,118.9085 C173.284105,118.4775 172.022105,118.6225 171.588105,118.7155 C171.390105,118.7575 171.194105,118.6305 171.152105,118.4315 C171.111105,118.2325 171.236105,118.0375 171.434105,117.9945 C171.510105,117.9785 173.314105,117.6015 174.324105,118.3035 C174.429105,118.3775 174.484105,118.4955 174.482105,118.6145" id="Fill-21" fill="#000000"></path>
                <path d="M178.412805,122.6008 C178.411805,122.6708 178.390805,122.7418 178.347805,122.8038 C178.230805,122.9708 178.001805,123.0118 177.834805,122.8958 C177.212805,122.4628 175.953805,122.6088 175.520805,122.7018 C175.321805,122.7448 175.125805,122.6178 175.083805,122.4178 C175.036805,122.2238 175.166805,122.0238 175.366805,121.9818 C175.441805,121.9648 177.244805,121.5888 178.255805,122.2908 C178.360805,122.3648 178.415805,122.4818 178.412805,122.6008" id="Fill-23" fill="#000000"></path>
                <path d="M183.941105,121.9075 C183.940105,121.9775 183.919105,122.0485 183.875105,122.1095 C183.758105,122.2765 183.529105,122.3185 183.363105,122.2025 C182.740105,121.7685 181.481105,121.9155 181.047105,122.0085 C180.849105,122.0515 180.653105,121.9245 180.611105,121.7255 C180.565105,121.5275 180.694105,121.3315 180.893105,121.2885 C180.969105,121.2715 182.772105,120.8945 183.783105,121.5965 C183.888105,121.6715 183.943105,121.7885 183.941105,121.9075" id="Fill-25" fill="#000000"></path>
                <path d="M187.210705,118.7639 C187.208705,118.8339 187.187705,118.9049 187.144705,118.9659 C187.027705,119.1329 186.798705,119.1739 186.631705,119.0589 C186.012705,118.6269 184.751705,118.7729 184.317705,118.8649 C184.119705,118.9069 183.923705,118.7809 183.881705,118.5809 C183.840705,118.3819 183.964705,118.1869 184.163705,118.1449 C184.239705,118.1279 186.042705,117.7509 187.052705,118.4529 C187.157705,118.5269 187.212705,118.6449 187.210705,118.7639" id="Fill-27" fill="#000000"></path>
                <path d="M55.5808045,68.9514 C55.5808045,68.9514 53.8288045,34.3574 56.2368045,34.3574 C58.6458045,34.3574 62.3678045,35.2324 63.6818045,38.0794 C64.9948045,40.9264 66.0898045,73.1104 67.4038045,75.0814 C68.7178045,77.0524 55.5808045,68.9514 55.5808045,68.9514" id="Fill-29" fill="#EA3824"></path>
                <path d="M101.451905,124.9836 L66.7059045,123.3796 C66.7059045,123.3796 69.3439045,101.0426 64.3389045,94.7866 C59.3339045,88.5306 45.3189045,76.7786 42.0069045,68.7316 C38.6919045,60.6846 37.5869045,31.8386 37.5869045,31.8386 C37.5869045,31.8386 36.4029045,26.3956 40.8999045,25.6856 C45.3959045,24.9756 46.8159045,27.5796 47.2899045,31.3666 C47.2899045,31.3666 52.4969045,27.5796 55.3369045,31.6026 C58.1769045,35.6266 55.7929045,62.7546 59.1239045,65.9206 C81.6129045,87.2976 94.3449045,83.9366 97.8939045,93.4036 C101.444905,102.8716 101.451905,124.9836 101.451905,124.9836" id="Fill-31" fill="#EA3824"></path>
                <path d="M52.7321045,66.5256 C52.8531045,66.5256 52.9711045,66.4656 53.0421045,66.3576 C53.1521045,66.1866 53.1031045,65.9596 52.9331045,65.8476 C52.9021045,65.8286 49.7651045,63.7136 49.3131045,57.6096 C48.8451045,51.2946 47.6691045,32.9476 47.6571045,32.7626 C47.6441045,32.5596 47.4741045,32.3966 47.2651045,32.4186 C47.0631045,32.4316 46.9091045,32.6066 46.9221045,32.8096 C46.9341045,32.9946 48.1111045,51.3456 48.5791045,57.6646 C49.0601045,64.1636 52.3921045,66.3766 52.5341045,66.4666 C52.5951045,66.5066 52.6651045,66.5256 52.7321045,66.5256" id="Fill-33" fill="#000000"></path>
                <path d="M57.3054045,73.1711 C57.3774045,73.1711 57.4514045,73.1501 57.5164045,73.1051 C57.6824045,72.9871 57.7234045,72.7581 57.6064045,72.5921 C57.0324045,71.7711 56.3194045,70.3771 56.5314045,69.8561 C56.5604045,69.7831 56.6184045,69.7041 56.8174045,69.6661 C58.2694045,69.3881 59.5634045,70.8081 59.5764045,70.8221 C59.7114045,70.9751 59.9444045,70.9861 60.0964045,70.8511 C60.2464045,70.7141 60.2594045,70.4821 60.1234045,70.3301 C60.0594045,70.2591 58.5324045,68.5901 56.6794045,68.9421 C56.1664045,69.0401 55.9454045,69.3421 55.8484045,69.5791 C55.4114045,70.6541 56.7344045,72.6291 57.0034045,73.0151 C57.0754045,73.1171 57.1894045,73.1711 57.3054045,73.1711" id="Fill-35" fill="#000000"></path>
                <path d="M59.1228045,66.2893 C59.1438045,66.2893 59.1638045,66.2873 59.1848045,66.2843 C59.3848045,66.2503 59.5198045,66.0603 59.4868045,65.8603 C58.6628045,60.9343 56.8428045,35.6803 56.8238045,35.4253 C56.8098045,35.2233 56.6278045,35.0653 56.4308045,35.0843 C56.2268045,35.1003 56.0748045,35.2753 56.0898045,35.4783 C56.1078045,35.7333 57.9318045,61.0203 58.7608045,65.9813 C58.7908045,66.1613 58.9458045,66.2893 59.1228045,66.2893" id="Fill-37" fill="#000000"></path>
                <path d="M96.3679045,102.9309 C96.5219045,102.9309 96.6659045,102.8329 96.7179045,102.6789 C96.8039045,102.4209 98.7389045,96.2719 91.2859045,88.8189 C87.5919045,85.1239 85.3549045,84.2999 82.9859045,83.4289 C80.6159045,82.5549 77.9289045,81.5669 73.2089045,77.3569 C66.2159045,71.1199 59.2029045,65.4509 55.2369045,66.1639 C54.1729045,66.3579 53.3509045,66.9919 52.7949045,68.0469 C51.6549045,70.2119 54.2239045,74.3929 60.4309045,80.4699 C64.9719045,84.9159 69.8879045,88.8199 69.9359045,88.8589 C70.0969045,88.9869 70.3279045,88.9579 70.4539045,88.7989 C70.5809045,88.6399 70.5539045,88.4079 70.3939045,88.2819 C65.0129045,84.0179 51.4769045,72.1329 53.4469045,68.3899 C53.8979045,67.5329 54.5269045,67.0409 55.3689045,66.8889 C59.0269045,66.2289 66.1939045,72.0859 72.7189045,77.9069 C77.5439045,82.2089 80.3009045,83.2239 82.7319045,84.1189 C85.1219045,84.9989 87.1859045,85.7589 90.7649045,89.3389 C97.8749045,96.4499 96.0379045,102.3879 96.0189045,102.4469 C95.9559045,102.6399 96.0599045,102.8479 96.2529045,102.9119 C96.2909045,102.9239 96.3309045,102.9309 96.3679045,102.9309" id="Fill-39" fill="#000000"></path>
                <path d="M101.069105,111.8996 C101.069105,111.8996 64.2961045,110.0256 63.8271045,111.4306 C63.3581045,112.8366 63.5921045,125.7186 64.7631045,126.1876 C65.9341045,126.6566 103.325105,128.1016 102.474105,126.1876 C101.538105,124.0796 103.411105,112.1336 101.069105,111.8996" id="Fill-41" fill="#FFFFFF"></path>
                <path d="M64.1501045,111.6321 C63.4771045,113.9931 64.3181045,125.3081 64.9321045,125.8621 C65.7481045,126.1161 80.2871045,126.7841 91.1611045,126.7841 L91.1631045,126.7841 C99.7081045,126.7841 101.640105,126.3681 102.073105,126.1691 C101.741105,125.1641 101.805105,122.9511 101.879105,120.4121 C101.964105,117.4051 102.109105,112.3731 101.032105,112.2661 C100.855105,112.2581 81.4871045,111.2771 70.8301045,111.2771 C65.5621045,111.2771 64.4031045,111.5251 64.1501045,111.6321 M91.1631045,127.5211 L91.1611045,127.5211 C81.0101045,127.5211 65.5231045,126.8881 64.6271045,126.5291 C63.0061045,125.8821 63.1901045,112.1781 63.4771045,111.3161 C63.5981045,110.9521 63.7351045,110.5401 70.8301045,110.5401 C81.5051045,110.5401 100.893105,111.5231 101.088105,111.5321 C102.742105,111.6971 102.766105,115.1641 102.615105,120.4331 C102.546105,122.8181 102.475105,125.2821 102.811105,126.0381 C102.883105,126.2021 102.870105,126.3831 102.771105,126.5341 C102.563105,126.8541 102.128105,127.5211 91.1631045,127.5211" id="Fill-43" fill="#000000"></path>
                <path d="M102.928405,116.5842 C102.928405,116.5842 61.5714045,114.7112 61.0444045,116.1162 C60.5174045,117.5212 60.7814045,130.4032 62.0984045,130.8722 C63.4144045,131.3412 103.455405,132.7462 104.509405,130.8722 C105.563405,128.9982 105.563405,116.8182 102.928405,116.5842" id="Fill-45" fill="#F69C43"></path>
                <path d="M88.6433045,119.47 C88.6443045,119.54 88.6653045,119.61 88.7083045,119.672 C88.8253045,119.839 89.0543045,119.881 89.2213045,119.764 C89.8413045,119.333 91.1023045,119.478 91.5363045,119.571 C91.7353045,119.613 91.9313045,119.486 91.9733045,119.287 C92.0153045,119.086 91.8893045,118.893 91.6903045,118.85 C91.6153045,118.833 89.8123045,118.457 88.8013045,119.159 C88.6963045,119.233 88.6403045,119.351 88.6433045,119.47" id="Fill-47" fill="#000000"></path>
                <path d="M94.7458045,118.8489 C94.7478045,118.9179 94.7688045,118.9899 94.8118045,119.0509 C94.9288045,119.2179 95.1578045,119.2589 95.3248045,119.1429 C95.9438045,118.7119 97.2058045,118.8579 97.6398045,118.9499 C97.8378045,118.9919 98.0338045,118.8649 98.0758045,118.6659 C98.1178045,118.4669 97.9918045,118.2719 97.7938045,118.2289 C97.7178045,118.2129 95.9138045,117.8359 94.9038045,118.5379 C94.7998045,118.6119 94.7438045,118.7289 94.7458045,118.8489" id="Fill-49" fill="#000000"></path>
                <path d="M90.8152045,122.8352 C90.8162045,122.9052 90.8372045,122.9762 90.8802045,123.0382 C90.9972045,123.2052 91.2262045,123.2462 91.3932045,123.1302 C92.0152045,122.6972 93.2742045,122.8432 93.7082045,122.9362 C93.9062045,122.9792 94.1022045,122.8522 94.1442045,122.6522 C94.1912045,122.4582 94.0612045,122.2582 93.8622045,122.2162 C93.7862045,122.1992 91.9832045,121.8232 90.9732045,122.5252 C90.8682045,122.5982 90.8122045,122.7162 90.8152045,122.8352" id="Fill-51" fill="#000000"></path>
                <path d="M85.2868045,122.1418 C85.2888045,122.2118 85.3098045,122.2828 85.3528045,122.3448 C85.4698045,122.5108 85.6988045,122.5528 85.8658045,122.4368 C86.4878045,122.0038 87.7478045,122.1498 88.1808045,122.2428 C88.3788045,122.2858 88.5748045,122.1588 88.6168045,121.9598 C88.6628045,121.7618 88.5338045,121.5658 88.3348045,121.5228 C88.2588045,121.5058 86.4558045,121.1288 85.4448045,121.8308 C85.3408045,121.9058 85.2848045,122.0228 85.2868045,122.1418" id="Fill-53" fill="#000000"></path>
                <path d="M82.0173045,118.9983 C82.0193045,119.0683 82.0393045,119.1383 82.0833045,119.2003 C82.2003045,119.3673 82.4293045,119.4093 82.5953045,119.2923 C83.2153045,118.8613 84.4763045,119.0063 84.9103045,119.0993 C85.1083045,119.1413 85.3043045,119.0153 85.3463045,118.8153 C85.3873045,118.6163 85.2623045,118.4213 85.0643045,118.3783 C84.9883045,118.3623 83.1853045,117.9853 82.1753045,118.6873 C82.0703045,118.7613 82.0153045,118.8793 82.0173045,118.9983" id="Fill-55" fill="#000000"></path>
                <path d="M81.1706045,47.2405 C81.2316045,42.0945 84.0186045,37.9185 86.8896045,35.5805 C93.3826045,30.2965 125.594605,27.3015 132.821605,27.6465 C140.048605,27.9915 147.202605,30.0275 154.389605,31.3355 C155.511605,31.5395 156.683605,31.7155 157.735605,31.0435 C160.110605,29.5265 161.476605,28.1435 163.065605,22.1735 C163.008605,27.5555 162.357605,34.0805 164.540605,38.0575 C170.506605,48.3155 165.136605,58.6125 165.136605,58.6125 C160.767605,67.2425 154.533605,71.3505 145.825605,71.8345 C145.825605,71.8345 80.7906045,79.5795 81.1706045,47.2405 Z" id="Stroke-57" stroke="#000000" stroke-width="1.5" stroke-linecap="round" stroke-linejoin="round"></path>
                <path d="M105.480205,54.5354 C105.187205,55.0904 104.733205,55.5404 104.120205,55.8864 C103.506205,56.2314 102.743205,56.4044 101.830205,56.4044 C100.942205,56.4044 100.152205,56.2414 99.4602045,55.9154 C98.7692045,55.5894 98.2172045,55.1414 97.8062045,54.5744 C97.3952045,54.0074 97.1572045,53.3704 97.0922045,52.6654 L98.5412045,52.6654 C98.5922045,53.0704 98.7432045,53.4744 98.9912045,53.8794 C99.2392045,54.2844 99.5972045,54.6204 100.068205,54.8884 C100.538205,55.1554 101.105205,55.2894 101.771205,55.2894 C102.645205,55.2894 103.314205,55.0544 103.777205,54.5844 C104.241205,54.1144 104.472205,53.5204 104.472205,52.8034 C104.472205,52.1894 104.319205,51.6904 104.012205,51.3054 C103.706205,50.9204 103.327205,50.6234 102.876205,50.4144 C102.426205,50.2054 101.810205,49.9774 101.027205,49.7284 C100.166205,49.4554 99.4702045,49.1904 98.9422045,48.9364 C98.4142045,48.6814 97.9662045,48.3064 97.6012045,47.8104 C97.2352045,47.3144 97.0522045,46.6554 97.0522045,45.8334 C97.0522045,44.7894 97.4172045,43.9414 98.1492045,43.2884 C98.8792045,42.6364 99.8842045,42.3094 101.164205,42.3094 C102.468205,42.3094 103.503205,42.6304 104.267205,43.2684 C105.030205,43.9084 105.484205,44.7044 105.627205,45.6574 L104.159205,45.6574 C104.042205,45.0694 103.731205,44.5484 103.229205,44.0914 C102.726205,43.6344 102.038205,43.4054 101.164205,43.4054 C100.354205,43.4054 99.7092045,43.6144 99.2262045,44.0324 C98.7432045,44.4504 98.5012045,45.0304 98.5012045,45.7744 C98.5012045,46.3624 98.6512045,46.8394 98.9522045,47.2034 C99.2512045,47.5694 99.6212045,47.8494 100.058205,48.0454 C100.495205,48.2414 101.092205,48.4634 101.849205,48.7114 C102.723205,48.9854 103.431205,49.2534 103.973205,49.5144 C104.514205,49.7744 104.974205,50.1664 105.353205,50.6884 C105.732205,51.2104 105.920205,51.9024 105.920205,52.7644 C105.920205,53.3894 105.774205,53.9804 105.480205,54.5354" id="Fill-59" fill="#000000"></path>
                <path d="M116.795605,46.5676 C117.571605,47.3576 117.960605,48.5156 117.960605,50.0426 L117.960605,56.2676 L116.609605,56.2676 L116.609605,50.1396 C116.609605,48.9786 116.316605,48.0886 115.729605,47.4676 C115.141605,46.8486 114.339605,46.5386 113.320605,46.5386 C112.250605,46.5386 111.399605,46.8806 110.766605,47.5656 C110.133605,48.2516 109.816605,49.2586 109.816605,50.5906 L109.816605,56.2676 L108.427605,56.2676 L108.427605,41.7816 L109.816605,41.7816 L109.816605,48.2026 C110.090605,47.2896 110.586605,46.5896 111.304605,46.1076 C112.022605,45.6256 112.844605,45.3826 113.771605,45.3826 C115.011605,45.3826 116.019605,45.7786 116.795605,46.5676" id="Fill-61" fill="#000000"></path>
                <path d="M122.824905,47.801 C122.099905,48.565 121.738905,49.606 121.738905,50.923 C121.738905,52.241 122.099905,53.282 122.824905,54.046 C123.549905,54.81 124.511905,55.191 125.712905,55.191 C126.469905,55.191 127.150905,55.015 127.758905,54.662 C128.364905,54.31 128.841905,53.811 129.186905,53.165 C129.532905,52.519 129.706905,51.772 129.706905,50.923 C129.706905,50.075 129.532905,49.328 129.186905,48.682 C128.841905,48.035 128.364905,47.536 127.758905,47.184 C127.150905,46.832 126.469905,46.655 125.712905,46.655 C124.511905,46.655 123.549905,47.037 122.824905,47.801 M128.130905,46.283 C128.893905,46.845 129.418905,47.589 129.706905,48.516 L129.706905,45.579 L131.056905,45.579 L131.056905,56.268 L129.706905,56.268 L129.706905,53.331 C129.418905,54.258 128.893905,55.002 128.130905,55.563 C127.366905,56.124 126.442905,56.405 125.359905,56.405 C124.393905,56.405 123.529905,56.183 122.765905,55.739 C122.002905,55.296 121.408905,54.659 120.984905,53.83 C120.559905,53.002 120.347905,52.032 120.347905,50.923 C120.347905,49.801 120.559905,48.825 120.984905,47.996 C121.408905,47.168 121.999905,46.535 122.756905,46.098 C123.512905,45.66 124.381905,45.442 125.359905,45.442 C126.442905,45.442 127.366905,45.723 128.130905,46.283" id="Fill-63" fill="#000000"></path>
                <path d="M136.929405,46.01 C137.621405,45.592 138.463405,45.383 139.454405,45.383 L139.454405,46.871 L139.004405,46.871 C137.973405,46.871 137.118405,47.149 136.440405,47.703 C135.761405,48.258 135.422405,49.161 135.422405,50.414 L135.422405,56.268 L134.033405,56.268 L134.033405,45.579 L135.422405,45.579 L135.422405,47.791 C135.736405,47.022 136.238405,46.428 136.929405,46.01" id="Fill-65" fill="#000000"></path>
                <path d="M144.094505,46.9885 C143.520505,47.2755 143.053505,47.7165 142.695505,48.3095 C142.335505,48.9035 142.143505,49.6445 142.117505,50.5315 L149.673505,50.5315 C149.726505,49.6575 149.582505,48.9205 149.242505,48.3195 C148.904505,47.7195 148.447505,47.2755 147.872505,46.9885 C147.298505,46.7015 146.671505,46.5575 145.993505,46.5575 C145.301505,46.5575 144.668505,46.7015 144.094505,46.9885 M148.362505,54.5455 C149.014505,54.0625 149.406505,53.4095 149.536505,52.5875 L150.986505,52.5875 C150.789505,53.7225 150.247505,54.6425 149.361505,55.3475 C148.473505,56.0515 147.351505,56.4045 145.993505,56.4045 C144.975505,56.4045 144.072505,56.1865 143.282505,55.7495 C142.492505,55.3115 141.875505,54.6785 141.432505,53.8495 C140.988505,53.0215 140.766505,52.0465 140.766505,50.9235 C140.766505,49.8015 140.988505,48.8255 141.432505,47.9965 C141.875505,47.1685 142.492505,46.5355 143.282505,46.0975 C144.072505,45.6605 144.975505,45.4415 145.993505,45.4415 C147.037505,45.4415 147.941505,45.6605 148.704505,46.0975 C149.468505,46.5355 150.048505,47.1195 150.447505,47.8495 C150.845505,48.5815 151.044505,49.3775 151.044505,50.2385 C151.044505,50.6035 151.018505,50.9365 150.966505,51.2365 L142.117505,51.2365 C142.130505,52.1365 142.316505,52.8905 142.675505,53.4975 C143.033505,54.1045 143.500505,54.5515 144.074505,54.8395 C144.649505,55.1265 145.269505,55.2695 145.935505,55.2695 C146.900505,55.2695 147.709505,55.0275 148.362505,54.5455" id="Fill-67" fill="#000000"></path>
                <path d="M134.343505,117.7229 C133.306505,117.7229 132.466505,118.5599 132.46149,119.5879 C132.457505,120.6209 133.293505,121.4649 134.327505,121.4699 L134.334505,121.4699 C135.364505,121.4699 136.204505,120.6329 136.20852,119.6049 C136.210505,119.1039 136.018505,118.6329 135.665505,118.2779 C135.313505,117.9219 134.843505,117.7249 134.343505,117.7229 M134.334505,122.2059 L134.323505,122.2059 C132.884505,122.1999 131.719505,121.0239 131.725481,119.5849 C131.731505,118.1529 132.902505,116.9869 134.333505,116.9869 C135.043505,116.9899 135.697505,117.2629 136.188505,117.7589 C136.679505,118.2539 136.947505,118.9099 136.945516,119.6079 C136.939505,121.0399 135.767505,122.2059 134.334505,122.2059" id="Fill-69" fill="#000000"></path>
                <path d="M65.6980045,9.5969 C69.5220045,10.8379 73.8240045,12.2719 76.4250045,13.2559 C73.1220045,10.8379 66.1600045,6.3689 64.7190045,6.1019 C64.6200045,6.7119 65.1110045,8.2899 65.6980045,9.5969 M65.8600045,13.4229 C64.5090045,15.2409 63.1220045,17.3689 62.9310045,18.0769 L62.9440045,18.0769 C64.9560045,18.0299 73.3940045,15.9659 76.8010045,14.8949 C73.6550045,14.5909 67.1680045,13.6199 65.8600045,13.4229 M62.3230045,18.6439 C62.1250045,18.4329 61.5980045,17.8719 65.4020045,12.8049 C65.4830045,12.6969 65.6150045,12.6439 65.7520045,12.6619 C65.8420045,12.6759 73.2720045,13.8029 76.7340045,14.1499 C74.1620045,13.1719 68.8830045,11.4049 65.3150045,10.2479 C65.2180045,10.2159 65.1370045,10.1459 65.0940045,10.0519 C64.8370045,9.4929 63.5760045,6.6489 64.1090045,5.6179 C64.1490045,5.5409 64.2750045,5.3609 64.5760045,5.35378512 C66.0400045,5.3199 77.8890045,12.8429 78.7930045,14.3389 C78.7960045,14.3409 78.7970045,14.3429 78.7960045,14.3429 C78.8070045,14.3619 78.8180045,14.3809 78.8260045,14.4019 C78.8320045,14.4139 78.8360045,14.4249 78.8400045,14.4369 L78.8400045,14.4379 C78.8500045,14.4739 78.8560045,14.5109 78.8570045,14.5489 C78.8590045,14.5759 78.8570045,14.6029 78.8530045,14.6299 C78.8440045,14.6849 78.8350045,14.7449 78.7680045,14.8219 C78.7600045,14.8309 78.7510045,14.8409 78.7410045,14.8509 C78.4240045,15.1589 77.1480045,15.7129 71.6720045,17.0709 C68.2610045,17.9159 64.2450045,18.7839 62.9620045,18.8139 C62.6800045,18.8209 62.4640045,18.7939 62.3230045,18.6439" id="Fill-71" fill="#000000"></path>
                <path d="M64.5300045,15.0618 C64.7330045,15.0568 64.8930045,14.8888 64.8890045,14.6868 C64.8850045,14.4828 64.7170045,14.3218 64.5130045,14.3258 C63.5230045,14.3458 62.5110045,14.2428 62.2040045,14.0988 C62.4600045,13.6088 64.1240045,11.7688 65.6170045,10.2618 C65.7600045,10.1178 65.7590045,9.8838 65.6150045,9.7418 C65.4690045,9.5968 65.2360045,9.6008 65.0930045,9.7438 C63.4240045,11.4298 61.4320045,13.5678 61.437991,14.1728 C61.4390045,14.2808 61.4720045,14.4388 61.6230045,14.5848 C62.1110045,15.0588 63.8180045,15.0768 64.5290045,15.0618 L64.5300045,15.0618 Z" id="Fill-73" fill="#000000"></path>
                <path d="M2.57000455,39.9319 C2.47300455,40.0969 2.26600455,40.1619 2.09100455,40.0779 C1.90900455,39.9909 1.83200455,39.7709 1.92000455,39.5869 C2.12600455,39.1589 2.35100455,38.7329 2.59100455,38.3229 C2.69300455,38.1469 2.93600455,38.0569 3.11200455,38.1599 C3.28800455,38.2619 3.36500455,38.4559 3.26200455,38.6319 L3.22700455,38.6939 C2.99800455,39.0869 2.78100455,39.4949 2.58400455,39.9059 C2.57900455,39.9149 2.57500455,39.9239 2.57000455,39.9319 M4.95800455,36.2279 C4.94700455,36.2449 4.93500455,36.2629 4.92200455,36.2799 C4.61100455,36.6509 4.31500455,37.0359 4.04400455,37.4219 C3.92600455,37.5889 3.69700455,37.6289 3.53000455,37.5119 C3.36400455,37.3949 3.32300455,37.1629 3.44100455,36.9989 C3.72500455,36.5949 4.03400455,36.1939 4.35600455,35.8069 C4.48700455,35.6509 4.71900455,35.6299 4.87600455,35.7609 C5.01500455,35.8769 5.04600455,36.0759 4.95800455,36.2279 M1.51100455,42.6779 C1.42800455,42.8219 1.25600455,42.8949 1.09000455,42.8459 C0.894004549,42.7879 0.783004549,42.5829 0.841004549,42.3879 C0.983004549,41.9079 1.14600455,41.4299 1.32400455,40.9659 C1.39300455,40.7759 1.61000455,40.6819 1.79900455,40.7539 C1.99000455,40.8279 2.08400455,41.0399 2.01000455,41.2309 C1.84000455,41.6749 1.68300455,42.1349 1.54700455,42.5969 C1.53800455,42.6259 1.52600455,42.6529 1.51100455,42.6779 M7.01700455,34.1269 C6.99800455,34.1609 6.97200455,34.1929 6.94100455,34.2199 C6.57900455,34.5359 6.22400455,34.8689 5.88900455,35.2089 C5.74800455,35.3549 5.51400455,35.3569 5.36900455,35.2139 C5.22300455,35.0719 5.21900455,34.8379 5.36400455,34.6939 C5.71300455,34.3389 6.08000455,33.9929 6.45800455,33.6639 C6.61100455,33.5309 6.84300455,33.5469 6.97700455,33.7009 C7.08400455,33.8229 7.09500455,33.9949 7.01700455,34.1269 M0.893004549,45.5559 C0.820004549,45.6809 0.676004549,45.7559 0.524004549,45.7349 C0.323004549,45.7059 0.182004549,45.5199 0.211004549,45.3189 C0.281004549,44.8169 0.368004549,44.3199 0.470004549,43.8419 C0.515004549,43.6439 0.710004549,43.5169 0.908004549,43.5599 C1.10700455,43.6029 1.23400455,43.7979 1.19100455,43.9969 C1.09200455,44.4569 1.00800455,44.9369 0.940004549,45.4209 C0.933004549,45.4699 0.917004549,45.5149 0.893004549,45.5559 M9.37900455,32.3699 C9.35000455,32.4189 9.30900455,32.4619 9.25700455,32.4949 C8.84800455,32.7539 8.44800455,33.0299 8.06700455,33.3129 C7.90400455,33.4349 7.67400455,33.4019 7.55200455,33.2389 C7.43000455,33.0759 7.46400455,32.8439 7.62700455,32.7229 C8.02300455,32.4269 8.43900455,32.1409 8.86400455,31.8719 C9.03600455,31.7639 9.26300455,31.8149 9.37200455,31.9869 C9.44800455,32.1079 9.44600455,32.2549 9.37900455,32.3699 M0.686004549,48.4909 C0.623004549,48.6009 0.503004549,48.6749 0.366004549,48.6729 C0.163004549,48.6729 -0.000995451033,48.5069 4.54896678e-06,48.3039 C0.00300454897,47.7939 0.021004549,47.2949 0.056004549,46.8089 C0.069004549,46.6059 0.246004549,46.4529 0.449004549,46.4669 C0.652004549,46.4819 0.805004549,46.6569 0.790004549,46.8599 C0.758004549,47.3309 0.739004549,47.8139 0.737004549,48.3079 C0.736004549,48.3739 0.718004549,48.4369 0.686004549,48.4909 M20.0670045,16.4869 C20.0600045,16.4979 20.0520045,16.5099 20.0450045,16.5209 C19.7710045,16.8889 19.5180045,17.2879 19.2870045,17.7189 C19.1880045,17.8909 18.9660045,17.9649 18.7880045,17.8699 C18.6080045,17.7729 18.5410045,17.5499 18.6360045,17.3699 C18.8830045,16.9119 19.1580045,16.4799 19.4520045,16.0819 C19.5730045,15.9189 19.8030045,15.8849 19.9670045,16.0059 C20.1200045,16.1189 20.1610045,16.3269 20.0670045,16.4869 M11.9760045,30.9829 C11.9380045,31.0479 11.8810045,31.1019 11.8060045,31.1339 C11.3670045,31.3279 10.9290045,31.5409 10.5070045,31.7669 C10.3280045,31.8629 10.1040045,31.7949 10.0080045,31.6159 C9.91300455,31.4369 9.98100455,31.2139 10.1600045,31.1179 C10.5980045,30.8829 11.0520045,30.6619 11.5090045,30.4609 C11.6960045,30.3789 11.9130045,30.4629 11.9960045,30.6489 C12.0450045,30.7609 12.0340045,30.8839 11.9760045,30.9829 M18.2320045,20.4759 C18.1520045,20.6139 17.9870045,20.6889 17.8240045,20.6479 C17.6270045,20.5979 17.5070045,20.3969 17.5570045,20.1999 C17.6830045,19.7009 17.8360045,19.2139 18.0080045,18.7539 C18.0780045,18.5629 18.2930045,18.4679 18.4830045,18.5399 C18.6740045,18.6119 18.7700045,18.8249 18.6980045,19.0149 C18.5340045,19.4489 18.3900045,19.9079 18.2710045,20.3799 C18.2630045,20.4139 18.2500045,20.4469 18.2320045,20.4759 M0.792004549,50.9009 C0.733004549,50.9999 0.630004549,51.0709 0.506004549,51.0819 C0.302004549,51.0999 0.124004549,50.9509 0.106004549,50.7469 C0.078004549,50.4269 0.054004549,50.1109 0.038004549,49.7979 C0.027004549,49.5939 0.182004549,49.4209 0.385004549,49.4109 C0.589004549,49.3999 0.762004549,49.5549 0.773004549,49.7579 C0.790004549,50.0629 0.812004549,50.3699 0.840004549,50.6829 C0.847004549,50.7619 0.828004549,50.8369 0.792004549,50.9009 M22.1430045,14.4199 C22.1190045,14.4619 22.0850045,14.4999 22.0430045,14.5319 C21.6620045,14.8109 21.2990045,15.1199 20.9670045,15.4519 C20.8230045,15.5949 20.5900045,15.5939 20.4460045,15.4499 C20.3030045,15.3049 20.3090045,15.0719 20.4480045,14.9289 C20.8070045,14.5719 21.1970045,14.2389 21.6080045,13.9379 C21.7710045,13.8179 22.0020045,13.8529 22.1220045,14.0169 C22.2120045,14.1389 22.2150045,14.2969 22.1430045,14.4199 M17.7800045,23.3819 C17.7100045,23.5019 17.5750045,23.5779 17.4270045,23.5639 C17.2250045,23.5449 17.0760045,23.3649 17.0940045,23.1619 C17.1190045,22.9109 17.1450045,22.6539 17.1730045,22.3909 C17.1980045,22.1499 17.2280045,21.9109 17.2620045,21.6799 C17.2950045,21.4789 17.4800045,21.3399 17.6810045,21.3699 C17.8830045,21.3999 18.0210045,21.5869 17.9910045,21.7879 C17.9580045,22.0099 17.9280045,22.2369 17.9050045,22.4679 C17.8770045,22.7279 17.8510045,22.9829 17.8280045,23.2319 C17.8230045,23.2859 17.8060045,23.3369 17.7800045,23.3819 M14.7570045,30.0129 C14.7090045,30.0949 14.6290045,30.1589 14.5300045,30.1839 C14.0780045,30.2999 13.6130045,30.4419 13.1490045,30.6029 C12.9570045,30.6699 12.7470045,30.5689 12.6800045,30.3759 C12.6140045,30.1839 12.7160045,29.9729 12.9070045,29.9079 C13.3900045,29.7399 13.8750045,29.5919 14.3460045,29.4699 C14.5440045,29.4199 14.7450045,29.5389 14.7950045,29.7359 C14.8200045,29.8329 14.8030045,29.9319 14.7570045,30.0129 M24.7300045,13.0329 C24.6880045,13.1029 24.6250045,13.1609 24.5430045,13.1919 C24.0910045,13.3619 23.6550045,13.5599 23.2450045,13.7789 C23.0650045,13.8739 22.8420045,13.8059 22.7470045,13.6269 C22.6500045,13.4489 22.7170045,13.2259 22.8970045,13.1279 C23.3360045,12.8949 23.8010045,12.6849 24.2810045,12.5019 C24.4710045,12.4309 24.6840045,12.5269 24.7570045,12.7169 C24.7970045,12.8249 24.7840045,12.9399 24.7300045,13.0329 M17.5780045,26.3209 C17.5120045,26.4349 17.3870045,26.5089 17.2460045,26.5029 C17.0430045,26.4959 16.8840045,26.3259 16.8910045,26.1209 C16.9090045,25.6529 16.9360045,25.1599 16.9730045,24.6399 C16.9880045,24.4359 17.1640045,24.2839 17.3670045,24.2979 C17.5690045,24.3129 17.7220045,24.4889 17.7080045,24.6919 C17.6730045,25.2029 17.6450045,25.6879 17.6280045,26.1499 C17.6260045,26.2119 17.6080045,26.2699 17.5780045,26.3209 M27.5810045,12.3089 C27.5250045,12.4029 27.4300045,12.4709 27.3150045,12.4889 C26.8340045,12.5579 26.3600045,12.6509 25.9050045,12.7649 C25.7090045,12.8149 25.5080045,12.6949 25.4590045,12.4969 C25.4100045,12.2999 25.5290045,12.0999 25.7270045,12.0509 C26.2060045,11.9309 26.7040045,11.8319 27.2090045,11.7589 C27.4110045,11.7299 27.5970045,11.8699 27.6270045,12.0709 C27.6390045,12.1569 27.6210045,12.2399 27.5810045,12.3089 M17.6670045,29.5849 C17.6040045,29.6929 17.4890045,29.7659 17.3550045,29.7679 C16.9110045,29.7769 16.4330045,29.8189 15.9360045,29.8949 C15.7350045,29.9249 15.5480045,29.7869 15.5170045,29.5859 C15.4860045,29.3849 15.6250045,29.1969 15.8260045,29.1669 C16.1920045,29.1109 16.5490045,29.0729 16.8930045,29.0499 C16.8720045,28.6049 16.8590045,28.1239 16.8600045,27.6079 C16.8580045,27.4029 17.0250045,27.2399 17.2280045,27.2389 C17.4310045,27.2399 17.5960045,27.4039 17.5960045,27.6079 C17.5960045,28.1299 17.6090045,28.6139 17.6320045,29.0599 C17.6330045,29.0929 17.6310045,29.1249 17.6250045,29.1569 C17.6800045,29.2189 17.7150045,29.3019 17.7160045,29.3929 C17.7170045,29.4629 17.7000045,29.5289 17.6670045,29.5849 M17.9880045,32.1749 C17.9410045,32.2559 17.8640045,32.3199 17.7660045,32.3459 C17.5690045,32.3989 17.3670045,32.2829 17.3150045,32.0859 C17.1970045,31.6499 17.1000045,31.1479 17.0290045,30.5929 C17.0030045,30.3919 17.1450045,30.2069 17.3460045,30.1809 C17.5480045,30.1549 17.7330045,30.2959 17.7580045,30.4979 C17.8270045,31.0199 17.9170045,31.4899 18.0260045,31.8939 C18.0520045,31.9929 18.0360045,32.0929 17.9880045,32.1749 M30.5190045,12.1489 C30.4540045,12.2619 30.3300045,12.3359 30.1900045,12.3309 C29.7050045,12.3169 29.2190045,12.3229 28.7470045,12.3479 C28.5440045,12.3589 28.3710045,12.2029 28.3590045,11.9989 C28.3480045,11.7949 28.5050045,11.6219 28.7080045,11.6129 C29.2010045,11.5859 29.7070045,11.5799 30.2130045,11.5959 C30.4150045,11.6019 30.5750045,11.7719 30.5690045,11.9749 C30.5670045,12.0379 30.5490045,12.0979 30.5190045,12.1489 M20.4500045,30.3119 C20.4350045,30.3379 20.4170045,30.3629 20.3940045,30.3849 C20.2520045,30.5299 20.0180045,30.5319 19.8740045,30.3889 C19.7980045,30.3149 19.7050045,30.2449 19.5970045,30.1819 C19.3730045,30.0509 19.0840045,29.9489 18.7400045,29.8779 C18.5410045,29.8369 18.4130045,29.6419 18.4540045,29.4429 C18.4940045,29.2419 18.6900045,29.1159 18.8880045,29.1569 C19.3100045,29.2439 19.6740045,29.3739 19.9680045,29.5459 C20.1290045,29.6389 20.2700045,29.7459 20.3900045,29.8649 C20.5120045,29.9849 20.5330045,30.1689 20.4500045,30.3119 M19.7620045,34.1589 C19.7160045,34.2369 19.6410045,34.2989 19.5470045,34.3269 C19.2170045,34.4209 18.8820045,34.3769 18.5730045,34.1979 C18.3340045,34.0579 18.1140045,33.8389 17.9220045,33.5459 C17.8100045,33.3759 17.8560045,33.1479 18.0270045,33.0359 C18.1970045,32.9239 18.4250045,32.9719 18.5370045,33.1419 C18.6670045,33.3379 18.8030045,33.4799 18.9440045,33.5619 C19.0770045,33.6389 19.2070045,33.6579 19.3410045,33.6199 C19.5370045,33.5619 19.7410045,33.6739 19.7980045,33.8699 C19.8270045,33.9709 19.8110045,34.0749 19.7620045,34.1589 M20.7310045,33.1129 C20.6400045,33.2679 20.4470045,33.3369 20.2750045,33.2679 C20.0870045,33.1919 19.9960045,32.9769 20.0720045,32.7879 C20.2260045,32.4059 20.2940045,31.9519 20.2590045,31.5099 C20.2450045,31.3069 20.3960045,31.1299 20.5980045,31.1149 C20.8010045,31.0989 20.9790045,31.2509 20.9950045,31.4539 C21.0370045,32.0139 20.9540045,32.5709 20.7550045,33.0649 C20.7480045,33.0809 20.7400045,33.0969 20.7310045,33.1129 M33.4480045,12.4599 C33.3720045,12.5909 33.2200045,12.6659 33.0640045,12.6379 C32.5890045,12.5509 32.1070045,12.4819 31.6320045,12.4309 C31.4290045,12.4089 31.2830045,12.2269 31.3050045,12.0259 C31.3260045,11.8209 31.5080045,11.6769 31.7110045,11.6989 C32.2040045,11.7509 32.7030045,11.8239 33.1960045,11.9119 C33.3950045,11.9489 33.5290045,12.1409 33.4920045,12.3399 C33.4840045,12.3839 33.4680045,12.4239 33.4480045,12.4599 M36.2990045,13.1999 C36.2120045,13.3479 36.0300045,13.4199 35.8610045,13.3629 C35.4130045,13.2089 34.9470045,13.0699 34.4760045,12.9479 C34.2790045,12.8969 34.1610045,12.6959 34.2120045,12.4979 C34.2640045,12.3009 34.4650045,12.1839 34.6610045,12.2349 C35.1490045,12.3619 35.6330045,12.5059 36.0990045,12.6639 C36.2920045,12.7309 36.3940045,12.9399 36.3290045,13.1319 C36.3210045,13.1569 36.3110045,13.1789 36.2990045,13.1999 M39.6950045,12.4969 C39.5980045,12.6629 39.3880045,12.7289 39.2150045,12.6419 C39.0320045,12.5519 38.9570045,12.3309 39.0470045,12.1489 C39.2570045,11.7249 39.4900045,11.2859 39.7520045,10.8299 C39.7520045,10.8289 39.7530045,10.8279 39.7530045,10.8279 C39.8540045,10.6539 40.0790045,10.5929 40.2550045,10.6939 C40.4310045,10.7949 40.4920045,11.0209 40.3900045,11.1969 C40.1370045,11.6379 39.9100045,12.0629 39.7080045,12.4749 C39.7040045,12.4829 39.6990045,12.4899 39.6950045,12.4969 M42.1160045,8.8249 C42.1020045,8.8479 42.0850045,8.8699 42.0660045,8.8919 C41.7530045,9.2239 41.4490045,9.5939 41.1630045,9.9909 C41.0440045,10.1559 40.8130045,10.1929 40.6480045,10.0739 C40.4840045,9.9539 40.4490045,9.7309 40.5650045,9.5599 C40.8710045,9.1369 41.1940045,8.7429 41.5290045,8.3869 C41.6690045,8.2389 41.9010045,8.2319 42.0490045,8.3709 C42.1760045,8.4919 42.2000045,8.6799 42.1160045,8.8249 M38.6230045,15.2359 C38.5400045,15.3769 38.3700045,15.4509 38.2060045,15.4049 C38.0090045,15.3499 37.8950045,15.1469 37.9500045,14.9509 C38.0070045,14.7469 38.0710045,14.5399 38.1400045,14.3289 C37.8420045,14.1739 37.5300045,14.0239 37.2080045,13.8829 C37.0210045,13.8009 36.9360045,13.5839 37.0170045,13.3979 C37.1060045,13.2109 37.3160045,13.1259 37.5030045,13.2069 C37.8100045,13.3419 38.1070045,13.4839 38.3920045,13.6299 C38.4060045,13.5939 38.4220045,13.5569 38.4350045,13.5209 C38.5080045,13.3319 38.7240045,13.2399 38.9130045,13.3139 C39.1030045,13.3889 39.1950045,13.6029 39.1200045,13.7909 C39.0850045,13.8809 39.0500045,13.9709 39.0160045,14.0609 C39.0570045,14.1609 39.0540045,14.2789 38.9970045,14.3799 C38.9550045,14.4399 38.9110045,14.4919 38.8520045,14.5229 C38.7810045,14.7359 38.7160045,14.9449 38.6590045,15.1489 C38.6510045,15.1799 38.6380045,15.2079 38.6230045,15.2359 M44.4370045,7.0419 C44.4030045,7.0999 44.3530045,7.1499 44.2890045,7.1829 C43.8830045,7.3949 43.4850045,7.6499 43.1080045,7.9409 C42.9470045,8.0659 42.7160045,8.0359 42.5910045,7.8739 C42.4670045,7.7129 42.4960045,7.4819 42.6580045,7.3579 C43.0690045,7.0389 43.5040045,6.7609 43.9490045,6.5299 C44.1290045,6.4359 44.3510045,6.5049 44.4450045,6.6859 C44.5070045,6.8029 44.4990045,6.9369 44.4370045,7.0419 M38.2760045,18.1429 C38.2170045,18.2449 38.1120045,18.3159 37.9860045,18.3259 C37.7830045,18.3409 37.6060045,18.1889 37.5910045,17.9869 C37.5530045,17.5029 37.5700045,16.9849 37.6400045,16.4419 C37.6680045,16.2439 37.8510045,16.0979 38.0530045,16.1229 C38.2550045,16.1499 38.3970045,16.3339 38.3710045,16.5359 C38.3070045,17.0289 38.2920045,17.4969 38.3250045,17.9289 C38.3320045,18.0069 38.3130045,18.0799 38.2760045,18.1429 M41.3250045,16.1669 C41.3060045,16.1989 41.2820045,16.2289 41.2540045,16.2549 C41.1010045,16.3909 40.8690045,16.3789 40.7330045,16.2279 C40.4480045,15.9109 40.0970045,15.5969 39.6920045,15.2929 C39.5290045,15.1709 39.4980045,14.9399 39.6170045,14.7779 C39.7390045,14.6149 39.9690045,14.5809 40.1320045,14.7029 C40.5770045,15.0359 40.9630045,15.3829 41.2800045,15.7349 C41.3900045,15.8569 41.4030045,16.0329 41.3250045,16.1669 M47.2390045,6.1989 C47.1820045,6.2949 47.0820045,6.3659 46.9610045,6.3789 C46.4890045,6.4319 46.0270045,6.5259 45.5860045,6.6579 C45.3910045,6.7159 45.1860045,6.6049 45.1280045,6.4109 C45.0690045,6.2159 45.1790045,6.0109 45.3750045,5.9519 C45.8570045,5.8069 46.3640045,5.7039 46.8800045,5.6479 C47.0820045,5.6249 47.2630045,5.7709 47.2860045,5.9719 C47.2960045,6.0539 47.2770045,6.1319 47.2390045,6.1989 M39.4650045,20.7439 C39.4570045,20.7569 39.4490045,20.7699 39.4390045,20.7829 C39.3160045,20.9439 39.0850045,20.9749 38.9240045,20.8519 C38.5120045,20.5379 38.1740045,20.0809 37.9430045,19.5299 C37.8640045,19.3419 37.9520045,19.1259 38.1410045,19.0479 C38.3290045,18.9689 38.5440045,19.0579 38.6230045,19.2449 C38.8020045,19.6779 39.0610045,20.0309 39.3690045,20.2659 C39.5180045,20.3789 39.5570045,20.5849 39.4650045,20.7439 M42.3380045,18.8419 C42.2720045,18.9539 42.1490045,19.0289 42.0090045,19.0259 C41.8060045,19.0199 41.6460045,18.8499 41.6520045,18.6469 C41.6580045,18.4099 41.6430045,18.1569 41.6080045,17.8939 C41.5840045,17.7149 41.5340045,17.5319 41.4610045,17.3479 C41.3840045,17.1589 41.4760045,16.9439 41.6670045,16.8689 C41.8550045,16.7929 42.0690045,16.8859 42.1440045,17.0749 C42.2410045,17.3149 42.3050045,17.5569 42.3380045,17.7949 C42.3790045,18.0959 42.3950045,18.3899 42.3870045,18.6669 C42.3860045,18.7319 42.3680045,18.7899 42.3380045,18.8419 M41.9860045,20.2579 C41.6550045,20.8259 41.1660045,21.1849 40.5940045,21.2899 C40.3940045,21.3269 40.2030045,21.1949 40.1660045,20.9949 C40.1300045,20.7949 40.2620045,20.6029 40.4610045,20.5649 C40.8230045,20.4989 41.1260045,20.2709 41.3380045,19.9069 C41.4400045,19.7309 41.6720045,19.6609 41.8470045,19.7639 C42.0230045,19.8669 42.0890045,20.0819 41.9860045,20.2579 M50.1700045,6.3289 C50.0930045,6.4599 49.9410045,6.5359 49.7840045,6.5059 C49.3040045,6.4169 48.8300045,6.3619 48.3720045,6.3379 C48.1690045,6.3279 48.0110045,6.1559 48.0220045,5.9529 C48.0310045,5.7469 48.2050045,5.5929 48.4080045,5.6029 C48.8990045,5.6269 49.4070045,5.6869 49.9190045,5.7819 C50.1190045,5.8189 50.2510045,6.0109 50.2140045,6.2109 C50.2060045,6.2539 50.1910045,6.2939 50.1700045,6.3289 M52.9880045,7.1729 C52.8970045,7.3279 52.7040045,7.3979 52.5310045,7.3279 C52.0730045,7.1419 51.6160045,6.9799 51.1750045,6.8469 C50.9800045,6.7879 50.8710045,6.5819 50.9280045,6.3879 C50.9860045,6.1919 51.1930045,6.0829 51.3870045,6.1419 C51.8500045,6.2819 52.3290045,6.4509 52.8080045,6.6459 C52.9970045,6.7219 53.0880045,6.9369 53.0110045,7.1249 C53.0050045,7.1419 52.9970045,7.1589 52.9880045,7.1729 M55.6240045,8.4879 C55.6240045,8.4889 55.6230045,8.4899 55.6230045,8.4909 C55.5190045,8.6649 55.2930045,8.7229 55.1180045,8.6199 L55.0020045,8.5509 C54.6450045,8.3429 54.2580045,8.1309 53.8470045,7.9259 C53.6650045,7.8339 53.5910045,7.6139 53.6820045,7.4319 C53.7610045,7.2519 53.9950045,7.1769 54.1760045,7.2669 C54.6020045,7.4799 55.0040045,7.6999 55.3730045,7.9139 L55.4940045,7.9859 C55.6680045,8.0889 55.7260045,8.3129 55.6240045,8.4879 M58.0510045,10.1559 C58.0420045,10.1729 58.0300045,10.1909 58.0150045,10.2069 C57.8850045,10.3639 57.6530045,10.3829 57.4970045,10.2529 C57.4930045,10.2489 57.0630045,9.8909 56.3410045,9.3979 C56.1740045,9.2839 56.1320045,9.0539 56.2450045,8.8859 C56.3600045,8.7179 56.5900045,8.6749 56.7580045,8.7899 C57.5110045,9.3049 57.9520045,9.6729 57.9690045,9.6889 C58.1090045,9.8049 58.1400045,10.0039 58.0510045,10.1559" id="Fill-75" fill="#000000"></path>
                <g id="Group-79" transform="translate(86.860376, 0.000000)">
                    <mask id="mask-2" fill="white">
                        <use xlink:href="#path-1"></use>
                    </mask>
                    <g id="Clip-78"></g>
                    <path d="M12.7018285,2.6711 C11.7758285,3.9761 11.6098285,5.4561 12.3618285,6.0841 C12.9288285,6.5601 13.4808285,6.3791 13.7218285,5.6971 C14.0018285,4.8991 13.7798285,3.6881 12.7018285,2.6711 M20.7958285,6.4881 C19.1458285,6.8581 17.9958285,8.3951 18.0228285,9.0041 C18.0268285,9.0871 18.0318285,9.1991 18.3518285,9.1991 C18.4168285,9.1991 18.4868285,9.1941 18.5628285,9.1831 C19.7468285,9.0181 20.6238285,7.9351 20.7958285,6.4881 M6.93482849,10.2411 C6.76482849,10.2411 6.56982849,10.3691 6.38482849,10.6021 C5.86282849,11.2551 5.48982849,12.6551 5.69982849,13.9701 C6.69882849,13.9491 7.52682849,13.5001 7.86982849,12.7881 C8.19282849,12.1191 8.04582849,11.3181 7.46582849,10.5911 C7.33982849,10.4311 7.14382849,10.2411 6.93482849,10.2411 M15.6988285,11.3041 C15.6208285,11.3041 15.4458285,11.4191 15.2858285,11.7371 C14.9348285,12.4381 14.8878285,13.6261 15.5288285,14.7271 C16.2128285,13.9251 16.4068285,12.9291 16.0758285,11.8791 C15.9318285,11.4241 15.7658285,11.3041 15.6988285,11.3041 M5.88482849,14.6991 C6.23782849,15.6931 7.07382849,16.6991 9.00982849,16.7141 L9.15782849,16.7151 C12.3528285,16.7151 14.0718285,15.9581 14.9818285,15.2451 C14.1028285,13.8651 14.1548285,12.3481 14.6278285,11.4061 C14.8948285,10.8731 15.2858285,10.5671 15.6988285,10.5671 C15.9728285,10.5671 16.4778285,10.7081 16.7778285,11.6561 C17.2018285,13.0041 16.9068285,14.3261 15.9698285,15.3371 C16.1598285,15.5561 16.3788285,15.7621 16.6208285,15.9521 C17.0398285,16.2811 17.5608285,16.4471 18.1708285,16.4471 C20.4128285,16.4471 23.4358285,14.1511 24.5138285,11.6311 C24.9838285,10.5291 25.2788285,8.9361 24.0088285,7.6071 C23.2598285,6.8231 22.4308285,6.4201 21.5428285,6.4071 C21.3858285,8.2741 20.2368285,9.6921 18.6648285,9.9121 C17.6548285,10.0551 17.3098285,9.5251 17.2878285,9.0371 C17.2378285,7.9451 18.8058285,6.0921 20.8198285,5.7331 C20.7348285,4.0231 19.7168285,2.4041 18.0478285,1.3551 C16.4018285,0.3201 14.5298285,0.6551 13.1698285,2.1001 C14.5208285,3.3501 14.7808285,4.9021 14.4158285,5.9411 C14.1638285,6.6561 13.6198285,7.1021 12.9948285,7.1021 C12.6258285,7.1021 12.2428285,6.9441 11.8898285,6.6501 C10.7028285,5.6561 11.0728285,3.6851 12.1288285,2.2071 C11.6198285,1.8551 11.0118285,1.5621 10.3148285,1.3351 C8.60882849,0.7811 7.38982849,0.9021 6.68282849,1.7171 C5.70582849,2.8421 5.98482849,4.9021 5.98782849,4.9241 C6.00782849,5.0651 5.94482849,5.2031 5.82682849,5.2821 C5.70882849,5.3591 5.55582849,5.3641 5.43382849,5.2911 C5.15182849,5.1221 4.84182849,5.0371 4.51182849,5.0371 C3.15282849,5.0371 1.56682849,6.5051 0.976828494,8.3091 C0.705828494,9.1391 0.291828494,11.2291 2.30782849,12.7061 C3.19182849,13.3551 4.09682849,13.7661 4.94982849,13.9111 C4.78182849,12.5511 5.12182849,11.0051 5.80882849,10.1421 C6.14182849,9.7251 6.53182849,9.5041 6.93482849,9.5041 C7.21282849,9.5041 7.62982849,9.6131 8.04282849,10.1321 C8.80482849,11.0891 8.98382849,12.1741 8.53382849,13.1081 C8.08982849,14.0291 7.08882849,14.6251 5.88482849,14.6991 M9.15882849,17.4511 L9.00382849,17.4501 C7.01582849,17.4361 5.60882849,16.4301 5.10382849,14.6771 C4.05482849,14.5581 2.94282849,14.0851 1.87282849,13.3011 C0.179828494,12.0601 -0.402171506,10.1571 0.277828494,8.0801 C0.970828494,5.9611 2.83082849,4.3011 4.51282849,4.3011 C4.75482849,4.3011 4.98882849,4.3341 5.21482849,4.3991 C5.19482849,3.5921 5.30082849,2.1871 6.12782849,1.2341 C7.03182849,0.1921 8.53082849,-0.0199 10.5438285,0.6351 C11.3298285,0.8911 12.0178285,1.2271 12.5958285,1.6351 C13.5598285,0.5911 14.8008285,-0.0009 16.0458285,-0.0009 C16.8608285,-0.0009 17.6668285,0.2451 18.4388285,0.7321 C20.3068285,1.9051 21.4498285,3.7311 21.5548285,5.6711 C22.6448285,5.6871 23.6498285,6.1661 24.5408285,7.0981 C25.7488285,8.3621 25.9798285,10.0741 25.1898285,11.9211 C23.9918285,14.7251 20.7118285,17.1841 18.1708285,17.1841 C17.3918285,17.1841 16.7178285,16.9651 16.1658285,16.5311 C15.8908285,16.3161 15.6428285,16.0821 15.4258285,15.8331 C14.0648285,16.8941 11.9098285,17.4511 9.15882849,17.4511" id="Fill-77" fill="#000000" mask="url(#mask-2)"></path>
                </g>
                <path d="M124.042705,90.1809 C123.116705,91.4859 122.950705,92.9649 123.702705,93.5939 C124.269705,94.0699 124.821705,93.8899 125.062705,93.2069 C125.342705,92.4089 125.120705,91.1979 124.042705,90.1809 M132.135705,93.9969 C130.486705,94.3679 129.336705,95.9039 129.363705,96.5139 C129.367705,96.5959 129.372705,96.7079 129.692705,96.7079 C129.757705,96.7079 129.826705,96.7029 129.903705,96.6929 C131.087705,96.5269 131.964705,95.4459 132.135705,93.9969 M118.275705,97.7509 C118.105705,97.7509 117.910705,97.8789 117.725705,98.1119 C117.203705,98.7659 116.830705,100.1649 117.040705,101.4799 C118.039705,101.4589 118.867705,101.0099 119.210705,100.2969 C119.533705,99.6289 119.386705,98.8279 118.806705,98.1009 C118.679705,97.9409 118.483705,97.7509 118.275705,97.7509 M127.039705,98.8139 C126.961705,98.8139 126.786705,98.9289 126.626705,99.2469 C126.274705,99.9479 126.228705,101.1359 126.869705,102.2359 C127.552705,101.4339 127.746705,100.4389 127.415705,99.3889 C127.271705,98.9339 127.106705,98.8139 127.039705,98.8139 M117.225705,102.2089 C117.577705,103.2019 118.414705,104.2089 120.350705,104.2239 L120.498705,104.2239 C123.693705,104.2239 125.412705,103.4669 126.322705,102.7549 C125.443705,101.3749 125.495705,99.8589 125.968705,98.9169 C126.235705,98.3829 126.626705,98.0769 127.039705,98.0769 C127.313705,98.0769 127.819705,98.2189 128.118705,99.1669 C128.542705,100.5139 128.247705,101.8359 127.310705,102.8469 C127.500705,103.0659 127.718705,103.2719 127.961705,103.4619 C128.380705,103.7909 128.901705,103.9569 129.510705,103.9569 L129.511705,103.9569 C131.753705,103.9569 134.776705,101.6609 135.854705,99.1409 C136.324705,98.0389 136.619705,96.4459 135.349705,95.1169 C134.600705,94.3329 133.771705,93.9299 132.884705,93.9169 C132.726705,95.7839 131.577705,97.2019 130.005705,97.4219 C128.999705,97.5639 128.650705,97.0369 128.628705,96.5469 C128.578705,95.4549 130.147705,93.6019 132.160705,93.2429 C132.075705,91.5329 131.057705,89.9149 129.388705,88.8649 C127.742705,87.8299 125.869705,88.1649 124.510705,89.6099 C125.860705,90.8599 126.121705,92.4119 125.756705,93.4509 C125.504705,94.1659 124.960705,94.6119 124.335705,94.6119 C123.960705,94.6119 123.588705,94.4589 123.230705,94.1599 C122.043705,93.1669 122.413705,91.1959 123.469705,89.7179 C122.960705,89.3659 122.352705,89.0729 121.655705,88.8459 C119.949705,88.2909 118.730705,88.4129 118.023705,89.2279 C117.046705,90.3529 117.325705,92.4129 117.328705,92.4349 C117.348705,92.5759 117.285705,92.7139 117.167705,92.7939 C117.049705,92.8699 116.896705,92.8759 116.774705,92.8029 C116.492705,92.6329 116.182705,92.5479 115.852705,92.5479 C114.493705,92.5479 112.907705,94.0159 112.317705,95.8199 C112.046705,96.6499 111.632705,98.7399 113.647705,100.2169 C114.532705,100.8659 115.437705,101.2759 116.289705,101.4219 C116.122705,100.0609 116.461705,98.5159 117.149705,97.6539 C117.482705,97.2359 117.871705,97.0149 118.275705,97.0149 C118.553705,97.0149 118.970705,97.1239 119.382705,97.6429 C120.145705,98.5999 120.324705,99.6849 119.874705,100.6189 C119.430705,101.5389 118.428705,102.1349 117.225705,102.2089 M120.498705,104.9609 L120.343705,104.9599 C118.356705,104.9459 116.949705,103.9389 116.444705,102.1869 C115.394705,102.0679 114.282705,101.5949 113.213705,100.8109 C111.520705,99.5699 110.938705,97.6669 111.617705,95.5899 C112.311705,93.4709 114.171705,91.8109 115.852705,91.8109 C116.094705,91.8109 116.328705,91.8439 116.554705,91.9089 C116.535705,91.1019 116.640705,89.6979 117.468705,88.7439 C118.372705,87.7029 119.871705,87.4909 121.883705,88.1449 C122.668705,88.4009 123.357705,88.7369 123.936705,89.1459 C124.899705,88.1019 126.140705,87.5089 127.385705,87.5089 C128.201705,87.5089 129.006705,87.7559 129.779705,88.2419 C131.647705,89.4149 132.789705,91.2409 132.894705,93.1809 C133.985705,93.1959 134.990705,93.6759 135.881705,94.6069 C137.089705,95.8699 137.320705,97.5839 136.531705,99.4299 C135.333705,102.2339 132.052705,104.6939 129.511705,104.6939 L129.510705,104.6939 C128.732705,104.6939 128.058705,104.4749 127.506705,104.0409 C127.231705,103.8259 126.983705,103.5919 126.766705,103.3429 C125.404705,104.4029 123.250705,104.9609 120.498705,104.9609" id="Fill-80" fill="#000000"></path>
                <g id="Group-84" transform="translate(344.305097, 100.809187)">
                    <mask id="mask-4" fill="white">
                        <use xlink:href="#path-3"></use>
                    </mask>
                    <g id="Clip-83"></g>
                    <path d="M1.02860782,1.71541253 C1.40360782,2.26941253 3.16260782,3.26941253 4.80660782,3.99141253 C7.05560782,3.44341253 14.4966078,1.64141253 18.8696078,0.731412529 C13.0496078,0.663412529 2.60460782,1.16341253 1.02860782,1.71541253 M7.99160782,7.01141253 C8.00860782,9.28541253 8.23660782,11.8364125 8.59660782,12.5134125 C10.2816078,11.5934125 17.9436078,4.72841253 20.6826078,1.80141253 C18.8236078,2.65941253 15.1696078,4.19041253 7.99160782,7.01141253 M8.48060782,13.3274125 C8.45860782,13.3264125 8.42360782,13.3224125 8.40160782,13.3194125 C8.02760782,13.2634125 7.03560782,13.1124125 7.02560782,6.77541253 C7.02560782,6.63941253 7.12260782,6.51641253 7.27860782,6.45441253 C11.2586078,4.89141253 17.1316078,2.52641253 20.0156078,1.24441253 C16.6296078,1.94141253 9.61360782,3.59741253 4.92060782,4.74341253 C4.79260782,4.77541253 4.65360782,4.76341253 4.53460782,4.71241253 C3.82360782,4.40641253 0.26160782,2.82541253 0.00860781985,1.67641253 C-0.0233921802,1.53141253 0.0346078198,1.38941253 0.16960782,1.27341253 C1.37760782,0.241412529 16.7666078,-0.135587471 20.7136078,0.0424125289 C21.9666078,0.0984125289 22.2236078,0.192412529 22.3806078,0.282412529 C22.4066078,0.298412529 22.4306078,0.315412529 22.4526078,0.333412529 C22.4536078,0.334412529 22.4556078,0.336412529 22.4576078,0.337412529 C22.4606078,0.340412529 22.4626078,0.342412529 22.4656078,0.344412529 C22.4966078,0.368412529 22.5226078,0.397412529 22.5456078,0.429412529 C22.5456078,0.429412529 22.5466078,0.430412529 22.5466078,0.431412529 C22.7006078,0.655412529 22.6036078,0.899412529 22.1306078,1.46841253 C20.6496078,3.25041253 9.96060782,13.3944125 8.48060782,13.3274125" id="Fill-82" fill="#000000" mask="url(#mask-4)"></path>
                </g>
                <path d="M348.852305,111.2385 C348.827305,111.2375 348.800305,111.2355 348.776305,111.2325 C348.503305,111.2015 348.343305,111.0925 348.258305,111.0055 C347.775305,110.5145 348.174305,107.6165 348.593305,105.2705 C348.629305,105.0705 348.875305,104.9325 349.137305,104.9665 C349.401305,104.9985 349.586305,105.1865 349.550305,105.3885 C349.182305,107.4495 348.892305,109.8685 349.017305,110.4965 C349.463305,110.4255 350.589305,109.9255 351.597305,109.3385 C351.807305,109.2175 352.111305,109.2505 352.275305,109.4135 C352.439305,109.5765 352.403305,109.8075 352.194305,109.9295 C351.481305,110.3425 349.761305,111.2795 348.852305,111.2385" id="Fill-85" fill="#000000"></path>
                <g id="Group-89" transform="translate(219.052563, 100.460005)">
                    <mask id="mask-6" fill="white">
                        <use xlink:href="#path-5"></use>
                    </mask>
                    <g id="Clip-88"></g>
                    <path d="M4.08584129,2.01479543 C4.01784129,2.01079543 3.94884129,1.99679543 3.88384129,1.97079543 C3.64684129,1.87279543 3.55184129,1.65079543 3.67284129,1.47079543 C4.22284129,0.658795428 4.60784129,0.186795428 4.62484129,0.166795428 C4.76484129,-0.00420457246 5.06184129,-0.0512045725 5.28784129,0.0607954275 C5.51584129,0.171795428 5.58484129,0.399795428 5.44484129,0.570795428 C5.44084129,0.574795428 5.06284129,1.03779543 4.53284129,1.82279543 C4.44484129,1.95279543 4.26884129,2.02279543 4.08584129,2.01479543 L4.08584129,2.01479543 Z M2.51184129,4.67779543 C2.45884129,4.67579543 2.40484129,4.66679543 2.35484129,4.65079543 C2.10584129,4.57279543 1.98184129,4.35679543 2.07784129,4.16879543 C2.32884129,3.67779543 2.58284129,3.21979543 2.82984129,2.80279543 C2.93984129,2.61879543 3.22584129,2.54079543 3.46784129,2.62879543 C3.71084129,2.71679543 3.81984129,2.93679543 3.71184129,3.11979543 C3.47084129,3.52679543 3.22284129,3.97279543 2.97884129,4.45179543 C2.90184129,4.60079543 2.71084129,4.68679543 2.51184129,4.67779543 L2.51184129,4.67779543 Z M127.162841,12.8597954 C127.148841,12.8587954 127.136841,12.8577954 127.122841,12.8557954 C126.859841,12.8257954 126.671841,12.6557954 126.700841,12.4557954 C126.701841,12.4527954 126.706841,12.4197954 126.707841,12.4157954 C126.743841,12.2157954 126.984841,12.0777954 127.252841,12.1137954 C127.516841,12.1467954 127.699841,12.3367954 127.662841,12.5377954 C127.627841,12.7257954 127.408841,12.8697954 127.162841,12.8597954 L127.162841,12.8597954 Z M1.31784129,7.45879543 C1.28284129,7.45779543 1.24784129,7.45279543 1.21184129,7.44579543 C0.953841291,7.38879543 0.799841291,7.18479543 0.866841291,6.98979543 C1.03684129,6.49679543 1.22384129,6.02179543 1.42084129,5.56379543 C1.50284129,5.37279543 1.77284129,5.27079543 2.02884129,5.33879543 C2.28184129,5.40779543 2.42084129,5.61779543 2.33784129,5.80979543 C2.14684129,6.25279543 1.96584129,6.71579543 1.80084129,7.19379543 C1.74284129,7.36179543 1.53784129,7.46879543 1.31784129,7.45879543 L1.31784129,7.45879543 Z M126.149841,15.6927954 C126.095841,15.6907954 126.040841,15.6807954 125.986841,15.6637954 C125.739841,15.5827954 125.618841,15.3677954 125.718841,15.1807954 C125.959841,14.7207954 126.164841,14.2677954 126.325841,13.8327954 C126.398841,13.6397954 126.663841,13.5297954 126.920841,13.5897954 C127.176841,13.6497954 127.326841,13.8557954 127.255841,14.0507954 C127.084841,14.5097954 126.868841,14.9877954 126.613841,15.4697954 C126.536841,15.6167954 126.347841,15.7017954 126.149841,15.6927954 L126.149841,15.6927954 Z M0.602841291,10.3387954 C0.589841291,10.3377954 0.576841291,10.3367954 0.564841291,10.3347954 C0.299841291,10.3087954 0.108841291,10.1227954 0.138841291,9.92079543 C0.209841291,9.43779543 0.308841291,8.93979543 0.433841291,8.44179543 C0.483841291,8.24379543 0.738841291,8.11879543 0.997841291,8.16079543 C1.25984129,8.20179543 1.43184129,8.39879543 1.38184129,8.59879543 C1.26184129,9.07679543 1.16584129,9.55579543 1.09784129,10.0207954 C1.06884129,10.2127954 0.851841291,10.3497954 0.602841291,10.3387954 L0.602841291,10.3387954 Z M124.427841,18.2967954 C124.349841,18.2937954 124.269841,18.2757954 124.196841,18.2407954 C123.968841,18.1327954 123.893841,17.9057954 124.029841,17.7327954 C124.357841,17.3207954 124.664841,16.8987954 124.940841,16.4817954 C125.061841,16.3027954 125.348841,16.2337954 125.589841,16.3287954 C125.827841,16.4247954 125.924841,16.6477954 125.804841,16.8277954 C125.517841,17.2607954 125.198841,17.6977954 124.858841,18.1257954 C124.765841,18.2437954 124.597841,18.3047954 124.427841,18.2967954 L124.427841,18.2967954 Z M83.4508413,16.8877954 C83.3228413,16.8817954 83.1988413,16.8377954 83.1068413,16.7577954 C82.6998413,16.4017954 82.2108413,16.4007954 81.7678413,16.4257954 C81.4908413,16.4477954 81.2658413,16.2877954 81.2388413,16.0857954 C81.2128413,15.8827954 81.4058413,15.7057954 81.6708413,15.6917954 C81.8958413,15.6777954 82.1268413,15.6767954 82.3638413,15.6877954 C82.9048413,15.7117954 83.4108413,15.9167954 83.8268413,16.2807954 C84.0048413,16.4367954 83.9868413,16.6687954 83.7878413,16.8007954 C83.6918413,16.8647954 83.5698413,16.8927954 83.4508413,16.8877954 L83.4508413,16.8877954 Z M0.525841291,13.2797954 C0.283841291,13.2687954 0.0818412908,13.1207954 0.0628412908,12.9327954 C0.00984129085,12.4447954 -0.0101587092,11.9357954 0.00484129085,11.4207954 C0.0108412908,11.2177954 0.231841291,11.0607954 0.497841291,11.0697954 C0.499841291,11.0707954 0.501841291,11.0707954 0.503841291,11.0707954 C0.767841291,11.0817954 0.975841291,11.2527954 0.969841291,11.4547954 C0.954841291,11.9447954 0.973841291,12.4277954 1.02284129,12.8907954 C1.04584129,13.0927954 0.847841291,13.2677954 0.581841291,13.2797954 C0.563841291,13.2807954 0.543841291,13.2807954 0.525841291,13.2797954 L0.525841291,13.2797954 Z M78.7618413,18.0117954 C78.7188413,18.0097954 78.6738413,18.0027954 78.6298413,17.9917954 C78.3758413,17.9237954 78.2368413,17.7137954 78.3188413,17.5227954 C78.5488413,16.9837954 79.0068413,16.5267954 79.6448413,16.2027954 C79.8618413,16.0897954 80.1638413,16.1377954 80.3158413,16.3077954 C80.4668413,16.4777954 80.4118413,16.7057954 80.1928413,16.8187954 C79.7318413,17.0527954 79.4008413,17.3807954 79.2368413,17.7657954 C79.1698413,17.9237954 78.9718413,18.0207954 78.7618413,18.0117954 L78.7618413,18.0117954 Z M34.5648413,16.0307954 C34.5228413,16.0287954 34.4818413,16.0227954 34.4398413,16.0117954 C34.1848413,15.9487954 34.0408413,15.7397954 34.1188413,15.5457954 C34.4208413,14.7917954 34.8798413,14.3087954 35.4438413,14.1477954 C35.6928413,14.0777954 35.9728413,14.1737954 36.0708413,14.3647954 C36.1698413,14.5557954 36.0498413,14.7677954 35.8018413,14.8387954 C35.5928413,14.8987954 35.2828413,15.1757954 35.0408413,15.7777954 C34.9768413,15.9407954 34.7768413,16.0397954 34.5648413,16.0307954 L34.5648413,16.0307954 Z M37.8098413,16.7867954 C37.5678413,16.7767954 37.3658413,16.6287954 37.3458413,16.4417954 C37.2898413,15.9247954 37.1298413,15.4977954 36.8818413,15.2037954 C36.7348413,15.0317954 36.7978413,14.8047954 37.0208413,14.6977954 C37.2448413,14.5887954 37.5428413,14.6437954 37.6888413,14.8157954 C38.0238413,15.2127954 38.2378413,15.7597954 38.3078413,16.3987954 C38.3288413,16.6017954 38.1318413,16.7757954 37.8658413,16.7877954 C37.8468413,16.7877954 37.8278413,16.7877954 37.8098413,16.7867954 L37.8098413,16.7867954 Z M122.229841,20.6777954 C122.129841,20.6727954 122.029841,20.6447954 121.945841,20.5917954 C121.736841,20.4617954 121.702841,20.2297954 121.868841,20.0737954 C122.270841,19.6957954 122.648841,19.3147954 123.002841,18.9307954 C123.152841,18.7677954 123.453841,18.7287954 123.673841,18.8507954 C123.893841,18.9707954 123.946841,19.2017954 123.795841,19.3657954 C123.427841,19.7647954 123.032841,20.1607954 122.623841,20.5457954 C122.524841,20.6387954 122.376841,20.6847954 122.229841,20.6777954 L122.229841,20.6777954 Z M84.6148413,19.6707954 C84.3718413,19.6607954 84.1698413,19.5107954 84.1508413,19.3217954 C84.1008413,18.8117954 83.9988413,18.3457954 83.8498413,17.9367954 C83.7778413,17.7387954 83.9278413,17.5377954 84.1848413,17.4887954 C84.4408413,17.4387954 84.7078413,17.5577954 84.7788413,17.7547954 C84.9448413,18.2107954 85.0578413,18.7257954 85.1128413,19.2847954 C85.1338413,19.4877954 84.9348413,19.6607954 84.6688413,19.6707954 C84.6498413,19.6717954 84.6318413,19.6717954 84.6148413,19.6707954 L84.6148413,19.6707954 Z M1.30084129,16.1707954 C1.10684129,16.1627954 0.927841291,16.0647954 0.860841291,15.9147954 C0.647841291,15.4417954 0.472841291,14.9457954 0.337841291,14.4387954 C0.285841291,14.2387954 0.453841291,14.0467954 0.715841291,14.0117954 C0.979841291,13.9757954 1.23184129,14.1097954 1.28384129,14.3097954 C1.40984129,14.7847954 1.57384129,15.2487954 1.77284129,15.6927954 C1.85984129,15.8857954 1.72784129,16.0937954 1.47584129,16.1557954 C1.41684129,16.1687954 1.35684129,16.1737954 1.30084129,16.1707954 L1.30084129,16.1707954 Z M79.5658413,20.8017954 C79.4178413,20.7947954 79.2738413,20.7367954 79.1838413,20.6337954 C78.7558413,20.1457954 78.4558413,19.6567954 78.2938413,19.1787954 C78.2268413,18.9807954 78.3808413,18.7827954 78.6388413,18.7367954 C78.8998413,18.6907954 79.1608413,18.8127954 79.2278413,19.0107954 C79.3608413,19.4057954 79.6148413,19.8167954 79.9818413,20.2337954 C80.1318413,20.4047954 80.0748413,20.6327954 79.8548413,20.7437954 C79.7658413,20.7867954 79.6648413,20.8057954 79.5658413,20.8017954 L79.5658413,20.8017954 Z M34.2738413,18.9477954 C34.0348413,18.9367954 33.8328413,18.7907954 33.8108413,18.6037954 C33.7598413,18.1697954 33.7428413,17.7437954 33.7618413,17.3327954 C33.7658413,17.2447954 33.7708413,17.1587954 33.7778413,17.0737954 C33.7958413,16.8697954 34.0248413,16.7347954 34.2908413,16.7397954 C34.5568413,16.7567954 34.7588413,16.9367954 34.7408413,17.1397954 L34.7258413,17.3757954 C34.7088413,17.7557954 34.7248413,18.1527954 34.7718413,18.5557954 C34.7958413,18.7587954 34.5998413,18.9337954 34.3338413,18.9477954 C34.3148413,18.9487954 34.2938413,18.9487954 34.2738413,18.9477954 L34.2738413,18.9477954 Z M119.631841,22.8087954 C119.510841,22.8027954 119.390841,22.7627954 119.300841,22.6897954 C119.115841,22.5387954 119.121841,22.3057954 119.313841,22.1677954 C119.774841,21.8387954 120.216841,21.4987954 120.636841,21.1547954 C120.815841,21.0067954 121.121841,21.0017954 121.317841,21.1427954 C121.515841,21.2837954 121.529841,21.5167954 121.350841,21.6627954 C120.908841,22.0257954 120.448841,22.3787954 119.981841,22.7127954 C119.884841,22.7827954 119.757841,22.8147954 119.631841,22.8087954 L119.631841,22.8087954 Z M37.2738413,19.6787954 C37.2298413,19.6767954 37.1838413,19.6697954 37.1388413,19.6577954 C36.8858413,19.5887954 36.7488413,19.3767954 36.8328413,19.1857954 C37.0318413,18.7317954 37.1798413,18.2737954 37.2688413,17.8247954 C37.3078413,17.6227954 37.5548413,17.4927954 37.8168413,17.5247954 C38.0798413,17.5607954 38.2618413,17.7507954 38.2228413,17.9527954 C38.1248413,18.4437954 37.9658413,18.9427954 37.7478413,19.4367954 C37.6788413,19.5927954 37.4818413,19.6877954 37.2738413,19.6787954 L37.2738413,19.6787954 Z M3.06484129,18.8147954 C2.91984129,18.8077954 2.77784129,18.7517954 2.68784129,18.6537954 C2.29984129,18.2317954 1.94884129,17.7867954 1.64584129,17.3327954 C1.52284129,17.1497954 1.61684129,16.9287954 1.85384129,16.8397954 C2.09084129,16.7517954 2.38184129,16.8277954 2.50384129,17.0117954 C2.78484129,17.4347954 3.11084129,17.8477954 3.47284129,18.2397954 C3.62684129,18.4077954 3.57784129,18.6367954 3.35984129,18.7507954 C3.27084129,18.7977954 3.16684129,18.8187954 3.06484129,18.8147954 L3.06484129,18.8147954 Z M84.4158413,22.6057954 C84.3958413,22.6047954 84.3738413,22.6037954 84.3538413,22.6007954 C84.0898413,22.5617954 83.9118413,22.3687954 83.9558413,22.1687954 C84.0598413,21.6907954 84.1298413,21.2117954 84.1628413,20.7477954 C84.1778413,20.5457954 84.3818413,20.3867954 84.6718413,20.4107954 C84.9378413,20.4257954 85.1418413,20.6037954 85.1268413,20.8067954 C85.0908413,21.2967954 85.0178413,21.8017954 84.9078413,22.3067954 C84.8678413,22.4917954 84.6538413,22.6167954 84.4158413,22.6057954 L84.4158413,22.6057954 Z M82.2988413,22.9107954 C82.2048413,22.9067954 82.1108413,22.8807954 82.0298413,22.8347954 C81.4638413,22.5057954 80.9498413,22.1687954 80.5018413,21.8307954 C80.3108413,21.6867954 80.3048413,21.4527954 80.4888413,21.3107954 C80.6738413,21.1667954 80.9808413,21.1677954 81.1718413,21.3127954 C81.5878413,21.6267954 82.0688413,21.9427954 82.6018413,22.2507954 C82.8168413,22.3757954 82.8618413,22.6067954 82.7048413,22.7687954 C82.6068413,22.8687954 82.4528413,22.9177954 82.2988413,22.9107954 L82.2988413,22.9107954 Z M116.677841,24.6467954 C116.533841,24.6397954 116.393841,24.5847954 116.302841,24.4877954 C116.146841,24.3197954 116.193841,24.0897954 116.408841,23.9747954 C116.911841,23.7047954 117.414841,23.4137954 117.902841,23.1107954 C118.106841,22.9837954 118.410841,23.0087954 118.583841,23.1697954 C118.754841,23.3277954 118.728841,23.5607954 118.523841,23.6877954 C118.017841,24.0017954 117.497841,24.3017954 116.976841,24.5817954 C116.886841,24.6297954 116.780841,24.6507954 116.677841,24.6467954 L116.677841,24.6467954 Z M35.5088413,22.2537954 C35.4148413,22.2497954 35.3218413,22.2247954 35.2408413,22.1787954 C35.0958413,22.0947954 35.0258413,21.9607954 35.0458413,21.8337954 C34.8708413,21.8137954 34.7138413,21.7187954 34.6528413,21.5807954 C34.4358413,21.0947954 34.2548413,20.6007954 34.1148413,20.1117954 C34.0588413,19.9117954 34.2238413,19.7187954 34.4828413,19.6797954 C34.7438413,19.6387954 35.0008413,19.7727954 35.0588413,19.9707954 C35.1788413,20.3947954 35.3328413,20.8237954 35.5168413,21.2457954 C35.7318413,20.9967954 35.9298413,20.7397954 36.1098413,20.4767954 C36.2328413,20.2977954 36.5238413,20.2347954 36.7608413,20.3297954 C36.9978413,20.4287954 37.0908413,20.6527954 36.9678413,20.8297954 C36.6618413,21.2767954 36.3088413,21.7067954 35.9158413,22.1117954 C35.8168413,22.2117954 35.6628413,22.2607954 35.5088413,22.2537954 L35.5088413,22.2537954 Z M5.70984129,20.9937954 C5.60884129,20.9897954 5.50884129,20.9597954 5.42384129,20.9067954 C4.90084129,20.5737954 4.40884129,20.2177954 3.95984129,19.8507954 C3.77584129,19.7007954 3.78384129,19.4667954 3.97784129,19.3297954 C4.16884129,19.1917954 4.47484129,19.2047954 4.65884129,19.3557954 C5.07884129,19.6997954 5.54084129,20.0337954 6.03084129,20.3447954 C6.23784129,20.4777954 6.27084129,20.7097954 6.10384129,20.8647954 C6.00284129,20.9557954 5.85684129,20.9997954 5.70984129,20.9937954 L5.70984129,20.9937954 Z M113.401841,26.1387954 C113.232841,26.1307954 113.073841,26.0567954 112.989841,25.9337954 C112.866841,25.7507954 112.957841,25.5307954 113.194841,25.4407954 C113.747841,25.2297954 114.300841,24.9977954 114.838841,24.7537954 C115.064841,24.6497954 115.361841,24.7077954 115.502841,24.8837954 C115.643841,25.0597954 115.573841,25.2857954 115.347841,25.3887954 C114.788841,25.6437954 114.215841,25.8827954 113.641841,26.1017954 C113.564841,26.1307954 113.481841,26.1427954 113.401841,26.1387954 L113.401841,26.1387954 Z M83.4198413,25.4307954 C83.3678413,25.4287954 83.3168413,25.4207954 83.2678413,25.4057954 C83.0178413,25.3287954 82.8908413,25.1147954 82.9838413,24.9257954 C83.1958413,24.4947954 83.3858413,24.0497954 83.5448413,23.6037954 C83.4258413,23.4847954 83.4058413,23.3197954 83.5108413,23.1877954 C83.6488413,23.0147954 83.9428413,22.9607954 84.1728413,23.0727954 C84.6908413,23.3187954 85.2488413,23.5617954 85.8338413,23.7957954 C86.0718413,23.8917954 86.1678413,24.1157954 86.0488413,24.2947954 C85.9288413,24.4727954 85.6388413,24.5427954 85.4008413,24.4467954 C85.0578413,24.3087954 84.7228413,24.1667954 84.3988413,24.0247954 C84.2478413,24.4217954 84.0768413,24.8157954 83.8878413,25.1997954 C83.8138413,25.3517954 83.6208413,25.4397954 83.4198413,25.4307954 L83.4198413,25.4307954 Z M89.1378413,25.7317954 C89.0868413,25.7297954 89.0338413,25.7207954 88.9828413,25.7047954 C88.3468413,25.5087954 87.7448413,25.3107954 87.1748413,25.1127954 C86.9298413,25.0267954 86.8178413,24.8077954 86.9238413,24.6227954 C87.0288413,24.4377954 87.3148413,24.3567954 87.5588413,24.4427954 C88.1148413,24.6377954 88.7038413,24.8307954 89.3258413,25.0227954 C89.5748413,25.0987954 89.6998413,25.3147954 89.6068413,25.5027954 C89.5298413,25.6537954 89.3378413,25.7417954 89.1378413,25.7317954 L89.1378413,25.7317954 Z M8.95084129,22.6437954 C8.88284129,22.6407954 8.81484129,22.6257954 8.74984129,22.5997954 C8.14984129,22.3557954 7.57284129,22.0937954 7.03384129,21.8217954 C6.80984129,21.7067954 6.74384129,21.4777954 6.88684129,21.3097954 C7.02984129,21.1407954 7.32884129,21.0967954 7.55384129,21.2087954 C8.06584129,21.4687954 8.61684129,21.7187954 9.18784129,21.9517954 C9.42584129,22.0487954 9.51984129,22.2727954 9.39784129,22.4517954 C9.31084129,22.5807954 9.13284129,22.6517954 8.95084129,22.6437954 L8.95084129,22.6437954 Z M109.856841,27.2317954 C109.662841,27.2227954 109.482841,27.1237954 109.416841,26.9737954 C109.330841,26.7787954 109.467841,26.5727954 109.719841,26.5117954 C110.307841,26.3707954 110.900841,26.2087954 111.484841,26.0297954 C111.731841,25.9537954 112.014841,26.0457954 112.118841,26.2337954 C112.223841,26.4227954 112.109841,26.6377954 111.864841,26.7127954 C111.258841,26.9007954 110.640841,27.0697954 110.028841,27.2157954 C109.971841,27.2297954 109.913841,27.2347954 109.856841,27.2317954 L109.856841,27.2317954 Z M92.7948413,26.7397954 C92.7548413,26.7377954 92.7138413,26.7317954 92.6738413,26.7217954 C92.0288413,26.5637954 91.4108413,26.4017954 90.8168413,26.2397954 C90.5658413,26.1687954 90.4298413,25.9577954 90.5148413,25.7667954 C90.5988413,25.5767954 90.8708413,25.4787954 91.1248413,25.5457954 C91.7068413,25.7067954 92.3158413,25.8657954 92.9478413,26.0207954 C93.2038413,26.0827954 93.3488413,26.2907954 93.2738413,26.4857954 C93.2098413,26.6477954 93.0088413,26.7477954 92.7948413,26.7397954 L92.7948413,26.7397954 Z M32.7918413,24.2797954 C32.6488413,24.2727954 32.5088413,24.2177954 32.4178413,24.1207954 C32.2618413,23.9527954 32.3078413,23.7237954 32.5228413,23.6087954 C33.0218413,23.3397954 33.4948413,23.0387954 33.9308413,22.7147954 C34.1188413,22.5747954 34.4248413,22.5787954 34.6128413,22.7277954 C34.8018413,22.8747954 34.8028413,23.1077954 34.6128413,23.2477954 C34.1428413,23.5987954 33.6308413,23.9237954 33.0928413,24.2137954 C33.0018413,24.2627954 32.8968413,24.2837954 32.7918413,24.2797954 L32.7918413,24.2797954 Z M36.7338413,24.5287954 C36.5768413,24.5217954 36.4258413,24.4557954 36.3378413,24.3447954 C35.9938413,23.9057954 35.6778413,23.4517954 35.3988413,22.9947954 C35.2858413,22.8097954 35.3898413,22.5917954 35.6308413,22.5097954 C35.8708413,22.4267954 36.1578413,22.5107954 36.2728413,22.6977954 C36.5368413,23.1297954 36.8358413,23.5597954 37.1628413,23.9767954 C37.3008413,24.1537954 37.2278413,24.3777954 37.0008413,24.4797954 C36.9168413,24.5177954 36.8238413,24.5327954 36.7338413,24.5287954 L36.7338413,24.5287954 Z M106.121841,27.8807954 C105.897841,27.8707954 105.701841,27.7427954 105.662841,27.5667954 C105.617841,27.3647954 105.794841,27.1777954 106.057841,27.1487954 C106.676841,27.0807954 107.298841,26.9917954 107.907841,26.8857954 C108.162841,26.8407954 108.427841,26.9657954 108.492841,27.1637954 C108.558841,27.3627954 108.400841,27.5597954 108.143841,27.6047954 C107.510841,27.7137954 106.862841,27.8067954 106.219841,27.8777954 C106.186841,27.8817954 106.152841,27.8827954 106.121841,27.8807954 L106.121841,27.8807954 Z M96.5318413,27.5457954 C96.5068413,27.5447954 96.4808413,27.5417954 96.4538413,27.5367954 C95.8258413,27.4307954 95.1898413,27.3047954 94.5438413,27.1617954 C94.2868413,27.1047954 94.1338413,26.8997954 94.2018413,26.7037954 C94.2708413,26.5097954 94.5358413,26.3987954 94.7918413,26.4537954 C95.4168413,26.5927954 96.0328413,26.7137954 96.6418413,26.8187954 C96.9028413,26.8627954 97.0728413,27.0607954 97.0218413,27.2587954 C96.9748413,27.4377954 96.7648413,27.5557954 96.5318413,27.5457954 L96.5318413,27.5457954 Z M12.4688413,23.9227954 C12.4128413,23.9197954 12.3568413,23.9107954 12.3038413,23.8927954 C11.7188413,23.6997954 11.1218413,23.4927954 10.5128413,23.2707954 C10.2708413,23.1827954 10.1628413,22.9627954 10.2728413,22.7797954 C10.3828413,22.5957954 10.6678413,22.5177954 10.9108413,22.6077954 C11.5078413,22.8247954 12.0928413,23.0287954 12.6668413,23.2167954 C12.9138413,23.2977954 13.0318413,23.5147954 12.9318413,23.7017954 C12.8538413,23.8477954 12.6648413,23.9317954 12.4688413,23.9227954 L12.4688413,23.9227954 Z M102.283841,28.0717954 C102.027841,28.0597954 101.821841,27.8977954 101.817827,27.6997954 C101.815841,27.4957954 102.027841,27.3327954 102.294841,27.3357954 C102.920841,27.3407954 103.556841,27.3277954 104.184841,27.2977954 C104.449841,27.2797954 104.683841,27.4387954 104.706841,27.6417954 C104.730841,27.8447954 104.533841,28.0207954 104.268841,28.0337954 C103.617841,28.0647954 102.957841,28.0777954 102.308841,28.0727954 C102.299841,28.0727954 102.291841,28.0727954 102.283841,28.0717954 L102.283841,28.0717954 Z M100.356841,27.9997954 C100.352841,27.9997954 100.347841,27.9987954 100.342841,27.9987954 C99.6998413,27.9567954 99.0428413,27.8967954 98.3898413,27.8187954 C98.1248413,27.7867954 97.9398413,27.5977954 97.9738413,27.3977954 C98.0088413,27.1957954 98.2488413,27.0637954 98.5158413,27.0897954 C99.1468413,27.1647954 99.7808413,27.2237954 100.401841,27.2647954 C100.668841,27.2827954 100.870841,27.4607954 100.854841,27.6637954 C100.838841,27.8637954 100.616841,28.0117954 100.356841,27.9997954 L100.356841,27.9997954 Z M29.3798413,25.5667954 C29.1868413,25.5577954 29.0078413,25.4597954 28.9398413,25.3107954 C28.8538413,25.1167954 28.9858413,24.9097954 29.2378413,24.8467954 C29.8278413,24.7017954 30.4018413,24.5267954 30.9458413,24.3217954 C31.1838413,24.2337954 31.4738413,24.3087954 31.5958413,24.4927954 C31.7188413,24.6747954 31.6248413,24.8957954 31.3888413,24.9847954 C30.8038413,25.2037954 30.1868413,25.3937954 29.5548413,25.5497954 C29.4968413,25.5637954 29.4378413,25.5687954 29.3798413,25.5667954 L29.3798413,25.5667954 Z M16.1038413,24.9817954 C16.0628413,24.9797954 16.0208413,24.9737954 15.9798413,24.9627954 C15.3758413,24.8127954 14.7568413,24.6447954 14.1248413,24.4587954 C13.8738413,24.3857954 13.7428413,24.1717954 13.8328413,23.9827954 C13.9228413,23.7917954 14.2018413,23.7017954 14.4498413,23.7717954 C15.0678413,23.9517954 15.6708413,24.1157954 16.2598413,24.2627954 C16.5158413,24.3267954 16.6588413,24.5357954 16.5818413,24.7297954 C16.5168413,24.8907954 16.3148413,24.9907954 16.1038413,24.9817954 L16.1038413,24.9817954 Z M81.7278413,28.0437954 C81.6478413,28.0397954 81.5658413,28.0207954 81.4908413,27.9847954 C81.2648413,27.8737954 81.1938413,27.6457954 81.3338413,27.4747954 C81.6598413,27.0767954 81.9648413,26.6607954 82.2408413,26.2337954 C82.3568413,26.0517954 82.6458413,25.9827954 82.8858413,26.0757954 C83.1248413,26.1687954 83.2248413,26.3917954 83.1078413,26.5717954 C82.8178413,27.0207954 82.4978413,27.4587954 82.1548413,27.8767954 C82.0618413,27.9927954 81.8958413,28.0507954 81.7278413,28.0437954 L81.7278413,28.0437954 Z M19.8518413,25.7467954 C19.8288413,25.7457954 19.8058413,25.7437954 19.7828413,25.7407954 C19.1618413,25.6447954 18.5238413,25.5307954 17.8648413,25.3947954 C17.6058413,25.3417954 17.4468413,25.1397954 17.5098413,24.9437954 C17.5728413,24.7457954 17.8318413,24.6227954 18.0928413,24.6837954 C18.7308413,24.8137954 19.3498413,24.9257954 19.9498413,25.0177954 C20.2128413,25.0577954 20.3888413,25.2517954 20.3418413,25.4517954 C20.2998413,25.6337954 20.0878413,25.7577954 19.8518413,25.7467954 L19.8518413,25.7467954 Z M25.6128413,26.0937954 C25.3728413,26.0827954 25.1718413,25.9377954 25.1498413,25.7487954 C25.1258413,25.5457954 25.3228413,25.3707954 25.5888413,25.3587954 C26.2198413,25.3277954 26.8428413,25.2707954 27.4408413,25.1897954 C27.7008413,25.1567954 27.9568413,25.2867954 28.0108413,25.4877954 C28.0638413,25.6877954 27.8958413,25.8787954 27.6338413,25.9147954 C27.0008413,26.0017954 26.3408413,26.0627954 25.6718413,26.0937954 C25.6518413,26.0947954 25.6328413,26.0947954 25.6128413,26.0937954 L25.6128413,26.0937954 Z M23.2608413,26.0927954 C22.7648413,26.0707954 22.2548413,26.0357954 21.7308413,25.9847954 C21.4648413,25.9587954 21.2718413,25.7747954 21.2978413,25.5727954 C21.3238413,25.3707954 21.5668413,25.2247954 21.8258413,25.2527954 C22.3288413,25.3007954 22.8178413,25.3357954 23.2938413,25.3577954 L23.7108413,25.3717954 C24.0048413,25.3747954 24.1898413,25.5517954 24.1868413,25.7547954 C24.1828413,25.9577954 23.9638413,26.1167954 23.6968413,26.1097954 L23.2608413,26.0927954 Z M39.0478413,26.9237954 C38.9228413,26.9177954 38.7998413,26.8747954 38.7078413,26.7977954 C38.2588413,26.4117954 37.8348413,26.0147954 37.4458413,25.6147954 C37.2858413,25.4487954 37.3278413,25.2187954 37.5408413,25.1007954 C37.7548413,24.9817954 38.0568413,25.0207954 38.2168413,25.1857954 C38.5868413,25.5677954 38.9908413,25.9477954 39.4218413,26.3147954 C39.6008413,26.4687954 39.5868413,26.7017954 39.3898413,26.8347954 C39.2928413,26.9007954 39.1698413,26.9297954 39.0478413,26.9237954 L39.0478413,26.9237954 Z M79.3808413,30.3307954 C79.2668413,30.3267954 79.1528413,30.2897954 79.0648413,30.2247954 C78.8708413,30.0797954 78.8638413,29.8467954 79.0478413,29.7027954 C79.4738413,29.3687954 79.8848413,29.0097954 80.2688413,28.6357954 C80.4308413,28.4777954 80.7328413,28.4527954 80.9438413,28.5807954 C81.1558413,28.7087954 81.1948413,28.9417954 81.0328413,29.0997954 C80.6288413,29.4937954 80.1958413,29.8707954 79.7468413,30.2237954 C79.6478413,30.3017954 79.5138413,30.3367954 79.3808413,30.3307954 L79.3808413,30.3307954 Z M41.8868413,28.9647954 C41.7888413,28.9597954 41.6918413,28.9337954 41.6078413,28.8827954 C41.0818413,28.5627954 40.5748413,28.2277954 40.1028413,27.8877954 C39.9048413,27.7467954 39.8918413,27.5137954 40.0718413,27.3667954 C40.2528413,27.2197954 40.5578413,27.2147954 40.7538413,27.3567954 C41.2078413,27.6817954 41.6938413,28.0027954 42.1988413,28.3117954 C42.4088413,28.4397954 42.4478413,28.6717954 42.2858413,28.8287954 C42.1868413,28.9247954 42.0358413,28.9717954 41.8868413,28.9647954 L41.8868413,28.9647954 Z M45.1058413,30.6437954 C45.0308413,30.6397954 44.9558413,30.6227954 44.8868413,30.5917954 C44.3068413,30.3327954 43.7418413,30.0617954 43.2088413,29.7837954 C42.9858413,29.6667954 42.9248413,29.4377954 43.0708413,29.2707954 C43.2188413,29.1027954 43.5188413,29.0617954 43.7398413,29.1777954 C44.2538413,29.4467954 44.7988413,29.7087954 45.3578413,29.9577954 C45.5908413,30.0627954 45.6738413,30.2877954 45.5438413,30.4627954 C45.4518413,30.5857954 45.2798413,30.6517954 45.1058413,30.6437954 L45.1058413,30.6437954 Z M76.4438413,32.1777954 C76.2948413,32.1707954 76.1508413,32.1127954 76.0618413,32.0097954 C75.9108413,31.8387954 75.9688413,31.6107954 76.1898413,31.5007954 C76.7038413,31.2437954 77.2068413,30.9617954 77.6848413,30.6617954 C77.8878413,30.5357954 78.1918413,30.5607954 78.3638413,30.7187954 C78.5358413,30.8777954 78.5108413,31.1097954 78.3068413,31.2377954 C77.8038413,31.5527954 77.2738413,31.8497954 76.7318413,32.1197954 C76.6438413,32.1637954 76.5428413,32.1827954 76.4438413,32.1777954 L76.4438413,32.1777954 Z M48.5808413,31.9827954 C48.5248413,31.9797954 48.4688413,31.9707954 48.4138413,31.9517954 C47.7938413,31.7467954 47.1978413,31.5337954 46.6258413,31.3137954 C46.3848413,31.2207954 46.2828413,30.9987954 46.3988413,30.8187954 C46.5128413,30.6367954 46.8008413,30.5647954 47.0418413,30.6577954 C47.5988413,30.8697954 48.1768413,31.0767954 48.7788413,31.2777954 C49.0258413,31.3587954 49.1448413,31.5757954 49.0428413,31.7627954 C48.9658413,31.9077954 48.7758413,31.9917954 48.5808413,31.9827954 L48.5808413,31.9827954 Z M73.0508413,33.5017954 C72.8668413,33.4937954 72.6948413,33.4057954 72.6208413,33.2657954 C72.5198413,33.0757954 72.6368413,32.8627954 72.8838413,32.7897954 C73.4698413,32.6167954 74.0418413,32.4207954 74.5828413,32.2097954 C74.8148413,32.1177954 75.1088413,32.1907954 75.2348413,32.3727954 C75.3608413,32.5547954 75.2728413,32.7767954 75.0378413,32.8687954 C74.4698413,33.0897954 73.8668413,33.2947954 73.2498413,33.4767954 C73.1858413,33.4967954 73.1168413,33.5047954 73.0508413,33.5017954 L73.0508413,33.5017954 Z M52.2218413,33.0227954 C52.1818413,33.0207954 52.1418413,33.0157954 52.1018413,33.0057954 C51.4608413,32.8487954 50.8418413,32.6857954 50.2428413,32.5147954 C49.9908413,32.4437954 49.8578413,32.2307954 49.9458413,32.0397954 C50.0328413,31.8507954 50.3078413,31.7517954 50.5598413,31.8257954 C51.1448413,31.9917954 51.7488413,32.1507954 52.3738413,32.3027954 C52.6298413,32.3667954 52.7758413,32.5737954 52.6998413,32.7677954 C52.6368413,32.9307954 52.4358413,33.0327954 52.2218413,33.0227954 L52.2218413,33.0227954 Z M69.3678413,34.2937954 C69.1518413,34.2847954 68.9608413,34.1627954 68.9128413,33.9937954 C68.8578413,33.7937954 69.0238413,33.6017954 69.2848413,33.5637954 C69.9088413,33.4747954 70.5238413,33.3657954 71.1108413,33.2397954 C71.3648413,33.1857954 71.6358413,33.2987954 71.7128413,33.4947954 C71.7918413,33.6917954 71.6488413,33.8937954 71.3928413,33.9497954 C70.7778413,34.0807954 70.1368413,34.1957954 69.4848413,34.2877954 C69.4458413,34.2937954 69.4068413,34.2957954 69.3678413,34.2937954 L69.3678413,34.2937954 Z M55.9658413,33.8047954 C55.9388413,33.8037954 55.9108413,33.8007954 55.8848413,33.7967954 C55.3088413,33.6957954 54.7228413,33.5817954 54.1258413,33.4587954 L53.9798413,33.4297954 C53.7218413,33.3737954 53.5658413,33.1707954 53.6328413,32.9747954 C53.6978413,32.7797954 53.9608413,32.6647954 54.2198413,32.7207954 L54.3418413,32.7447954 C54.9408413,32.8687954 55.5148413,32.9787954 56.0778413,33.0767954 C56.3398413,33.1237954 56.5078413,33.3217954 56.4528413,33.5197954 C56.4058413,33.6987954 56.1958413,33.8157954 55.9658413,33.8047954 L55.9658413,33.8047954 Z M65.5498413,34.6067954 C65.3038413,34.5957954 65.0998413,34.4437954 65.0848413,34.2507954 C65.0688413,34.0477954 65.2728413,33.8767954 65.5378413,33.8707954 C66.1838413,33.8547954 66.8168413,33.8207954 67.4228413,33.7717954 C67.6868413,33.7477954 67.9298413,33.8957954 67.9638413,34.0987954 C67.9988413,34.3007954 67.8128413,34.4827954 67.5488413,34.5037954 C66.9198413,34.5557954 66.2628413,34.5897954 65.5948413,34.6077954 C65.5798413,34.6077954 65.5648413,34.6077954 65.5498413,34.6067954 L65.5498413,34.6067954 Z M59.7738413,34.3507954 C59.7608413,34.3507954 59.7468413,34.3487954 59.7328413,34.3477954 C59.1038413,34.2797954 58.4598413,34.1997954 57.8018413,34.1047954 C57.5378413,34.0667954 57.3588413,33.8737954 57.4018413,33.6737954 C57.4458413,33.4747954 57.6958413,33.3427954 57.9568413,33.3797954 C58.6008413,33.4717954 59.2308413,33.5507954 59.8468413,33.6187954 C60.1108413,33.6467954 60.2998413,33.8327954 60.2698413,34.0347954 C60.2388413,34.2267954 60.0228413,34.3627954 59.7738413,34.3507954 L59.7738413,34.3507954 Z M62.7088413,34.5777954 C62.3708413,34.5617954 62.0278413,34.5427954 61.6808413,34.5197954 C61.4148413,34.5007954 61.2128413,34.3227954 61.2308413,34.1187954 C61.2478413,33.9167954 61.4888413,33.7857954 61.7428413,33.7847954 C62.3928413,33.8297954 63.0268413,33.8577954 63.6428413,33.8707954 C63.9158413,33.8767954 64.1238413,34.0477954 64.1228449,34.2517954 C64.1208413,34.4547954 63.9028413,34.6157954 63.6368413,34.6087954 C63.3308413,34.6017954 63.0228413,34.5907954 62.7088413,34.5777954 L62.7088413,34.5777954 Z" id="Fill-87" fill="#000000" mask="url(#mask-6)"></path>
                </g>
                <path d="M138.802505,15.2131 C139.297505,15.3571 140.225505,15.5641 141.033505,15.7101 C141.176505,15.7361 141.289505,15.8431 141.324505,15.9841 C141.534505,16.8171 141.809505,17.7691 142.003505,18.2991 C142.278505,17.8041 142.700505,16.9061 143.042505,16.1131 C143.082505,16.0201 143.160505,15.9471 143.256505,15.9121 C143.946505,15.6661 144.726505,15.3631 145.199505,15.1521 C144.863505,15.0101 144.392505,14.8441 144.089505,14.7361 C143.253505,14.4421 143.096505,14.3771 142.989505,14.2351 C142.896505,14.1111 142.837505,13.9011 142.625505,13.0571 C142.544505,12.7311 142.417505,12.2261 142.306505,11.8571 C142.058505,12.3291 141.706505,13.1541 141.434505,13.8831 C141.398505,13.9811 141.323505,14.0581 141.227505,14.0971 C140.333505,14.4571 139.319505,14.9171 138.802505,15.2131 M141.957505,19.3321 C141.681505,19.3321 141.420505,19.3321 140.669505,16.3931 C138.166505,15.9221 137.948505,15.6321 137.874505,15.5341 C137.806505,15.4421 137.776505,15.2731 137.806505,15.1621 C137.850505,15.0041 137.952505,14.6361 140.800505,13.4741 C141.813505,10.7981 142.156505,10.7981 142.385505,10.7981 C142.501505,10.7981 142.662505,10.8821 142.732505,10.9741 C142.915505,11.2181 143.084505,11.8561 143.340505,12.8781 C143.421505,13.2011 143.519505,13.5921 143.574505,13.7601 C143.723505,13.8251 144.058505,13.9441 144.335505,14.0411 C145.800505,14.5611 146.178505,14.7361 146.247505,15.0811 C146.273505,15.2081 146.207505,15.3961 146.112505,15.4831 C145.816505,15.7501 144.396505,16.2841 143.656505,16.5521 C142.460505,19.3031 142.205505,19.3181 141.981505,19.3311 C141.974505,19.3321 141.964505,19.3321 141.957505,19.3321" id="Fill-90" fill="#000000"></path>
                <path d="M41.8903045,120.3938 C42.3853045,120.5378 43.3133045,120.7448 44.1213045,120.8918 C44.2643045,120.9168 44.3773045,121.0238 44.4123045,121.1648 C44.6223045,121.9978 44.8973045,122.9498 45.0913045,123.4798 C45.3663045,122.9848 45.7883045,122.0868 46.1303045,121.2938 C46.1703045,121.2018 46.2483045,121.1278 46.3443045,121.0938 C47.0343045,120.8478 47.8133045,120.5438 48.2873045,120.3328 C47.9513045,120.1908 47.4803045,120.0248 47.1773045,119.9178 C46.3413045,119.6228 46.1843045,119.5578 46.0773045,119.4158 C45.9843045,119.2918 45.9253045,119.0818 45.7133045,118.2378 C45.6323045,117.9118 45.5053045,117.4068 45.3943045,117.0378 C45.1463045,117.5098 44.7943045,118.3348 44.5223045,119.0648 C44.4863045,119.1618 44.4113045,119.2388 44.3153045,119.2778 C43.4213045,119.6378 42.4073045,120.0978 41.8903045,120.3938 M45.0453045,124.5128 C44.7693045,124.5128 44.5083045,124.5128 43.7573045,121.5738 C41.2543045,121.1028 41.0363045,120.8128 40.9623045,120.7148 C40.8943045,120.6228 40.8643045,120.4538 40.8943045,120.3428 C40.9383045,120.1848 41.0403045,119.8168 43.8883045,118.6548 C44.9013045,115.9788 45.2443045,115.9788 45.4733045,115.9788 C45.5893045,115.9788 45.7503045,116.0628 45.8203045,116.1548 C46.0033045,116.3998 46.1723045,117.0378 46.4283045,118.0588 C46.5093045,118.3818 46.6073045,118.7728 46.6623045,118.9408 C46.8113045,119.0058 47.1463045,119.1248 47.4233045,119.2228 C48.8883045,119.7418 49.2663045,119.9168 49.3343045,120.2618 C49.3613045,120.3888 49.2953045,120.5768 49.2003045,120.6648 C48.9043045,120.9308 47.4843045,121.4648 46.7443045,121.7328 C45.5483045,124.4838 45.2933045,124.4988 45.0693045,124.5118 C45.0613045,124.5128 45.0523045,124.5128 45.0453045,124.5128" id="Fill-92" fill="#000000"></path>
                <path d="M25.4558045,46.7659 C24.4198045,46.7659 23.5788045,47.6179 23.5747703,48.6649 C23.5718045,49.1749 23.7658045,49.6559 24.1178045,50.0169 C24.4698045,50.3779 24.9388045,50.5789 25.4388045,50.5809 L25.4478045,50.5809 C26.4768045,50.5809 27.3168045,49.7299 27.32082,48.6819 C27.3228045,48.1719 27.1308045,47.6929 26.7778045,47.3299 C26.4258045,46.9689 25.9558045,46.7679 25.4558045,46.7659 M25.4468045,51.3309 L25.4358045,51.3309 C24.7388045,51.3279 24.0848045,51.0489 23.5948045,50.5439 C23.1038045,50.0399 22.8348045,49.3719 22.8377797,48.6619 C22.8438045,47.2029 24.0158045,46.0159 25.4478045,46.0159 C26.1558045,46.0189 26.8098045,46.2979 27.3018045,46.8019 C27.7918045,47.3069 28.0598045,47.9749 28.0578157,48.6849 C28.0518045,50.1439 26.8808045,51.3309 25.4468045,51.3309" id="Fill-94" fill="#000000"></path>
                <path d="M182.390305,23.51 C182.970305,23.82 183.598305,24.171 184.224305,24.539 C184.300305,23.252 184.244305,22.572 184.179305,22.292 C183.990305,22.354 183.509305,22.596 182.390305,23.51 M179.170305,22.895 C179.161305,23.078 179.210305,23.602 179.728305,24.867 C180.209305,24.424 180.659305,24.02 181.071305,23.66 C179.988305,23.128 179.437305,22.95 179.170305,22.895 M184.865305,25.783 C184.799305,26.466 184.712305,27.164 184.612305,27.822 C186.298305,27.64 186.892305,27.413 187.091305,27.303 C186.819305,27.057 186.030305,26.503 184.865305,25.783 M180.037305,25.585 C180.395305,26.377 180.829305,27.229 181.283305,28.027 C182.171305,28.007 183.051305,27.961 183.854305,27.895 C183.984305,27.083 184.091305,26.201 184.163305,25.359 C183.347305,24.872 182.516305,24.406 181.781305,24.021 C181.261305,24.466 180.676305,24.991 180.037305,25.585 M177.635305,27.899 C178.108305,27.973 179.033305,28.04 180.446305,28.037 C180.096305,27.403 179.762305,26.745 179.471305,26.117 C178.696305,26.852 178.025305,27.513 177.635305,27.899 M181.710305,28.752 C182.474305,30.003 182.951305,30.52 183.161305,30.681 C183.293305,30.433 183.502305,29.825 183.725305,28.644 C183.085305,28.694 182.403305,28.73 181.710305,28.752 M183.224305,31.471 C183.006305,31.471 182.442305,31.456 180.863305,28.771 C180.676305,28.773 180.493305,28.774 180.312305,28.774 C176.996305,28.774 176.800305,28.435 176.696305,28.252 C176.629305,28.139 176.631305,27.927 176.697305,27.813 C176.712305,27.785 176.732305,27.761 176.754305,27.739 C176.765305,27.727 177.837305,26.644 179.154305,25.405 C178.151305,23.043 178.448305,22.587 178.562305,22.412 C178.676305,22.238 178.859305,22.14 179.076305,22.14 C179.094305,22.14 179.174305,22.147 179.193305,22.15 C179.689305,22.224 180.525305,22.558 181.679305,23.141 C183.381305,21.721 183.961305,21.534 184.277305,21.534 C184.508305,21.534 184.697305,21.645 184.794305,21.836 C185.054305,22.346 185.019305,23.773 184.934305,24.963 C185.622305,25.383 187.414305,26.496 187.755305,26.936 C187.902305,27.125 187.935305,27.349 187.848305,27.55 C187.753305,27.767 187.536305,28.267 184.486305,28.575 C184.218305,30.068 183.925305,30.986 183.614305,31.308 C183.512305,31.414 183.401305,31.487 183.224305,31.471" id="Fill-96" fill="#000000"></path>
                <g id="Group-3" transform="translate(342.000000, 27.000000)" fill="#EA3824">
                    <path d="M36.75,25.424875 C36.75,27.4078438 36.505,29.3908125 36.505,29.3908125 C36.505,29.3908125 36.266125,31.07825 35.531125,31.8224375 C34.600125,32.7978438 33.5558125,32.8024375 33.0765313,32.8590938 C29.6480625,33.1071563 24.5,33.1148125 24.5,33.1148125 C24.5,33.1148125 18.13,33.056625 16.17,32.8698125 C15.624875,32.7672188 14.399875,32.7978438 13.468875,31.8224375 C12.733875,31.07825 12.495,29.3908125 12.495,29.3908125 C12.495,29.3908125 12.25,27.4078438 12.25,25.424875 L12.25,23.5659375 C12.25,21.5829688 12.495,19.6015313 12.495,19.6015313 C12.495,19.6015313 12.733875,17.9125625 13.468875,17.168375 C14.399875,16.1929688 15.4441875,16.188375 15.9234688,16.1317188 C19.3519375,15.8836563 24.4954063,15.8836563 24.4954063,15.8836563 L24.5045937,15.8836563 C24.5045937,15.8836563 29.6480625,15.8836563 33.0765313,16.1317188 C33.5558125,16.188375 34.600125,16.1929688 35.531125,17.168375 C36.266125,17.9125625 36.505,19.6015313 36.505,19.6015313 C36.505,19.6015313 36.75,21.5829688 36.75,23.5659375 L36.75,25.424875 Z M24.5,0 C10.9683438,0 0,10.9683437 0,24.5 C0,38.030125 10.9683438,49 24.5,49 C38.0316563,49 49,38.030125 49,24.5 C49,10.9683437 38.0316563,0 24.5,0 L24.5,0 Z" id="Fill-207"></path>
                    <polygon id="Fill-208" points="22.0016189 28 29 24.5124555 22 21"></polygon>
                </g>
            </g>
        </g>
    </g>
</svg>